<mxfile host="app.diagrams.net" modified="2021-07-14T08:18:05.742Z" agent="5.0 (Windows NT 10.0; Win64; x64) AppleWebKit/537.36 (KHTML, like Gecko) Chrome/91.0.4472.77 Safari/537.36 Edg/91.0.864.41" etag="6xAw2nYA9euRuFd7Kl8C" version="14.8.6" type="github">
  <diagram id="iy8otpd0dxLt8Ig-Ym_F" name="Workflow-1">
    <mxGraphModel dx="2431" dy="1089" grid="1" gridSize="10" guides="1" tooltips="1" connect="1" arrows="1" fold="1" page="0" pageScale="1" pageWidth="827" pageHeight="1169" math="0" shadow="0">
      <root>
        <mxCell id="0" />
        <mxCell id="aC-6cmxcRIZIMmVNyTmy-1" value="Git" parent="0" />
        <mxCell id="aC-6cmxcRIZIMmVNyTmy-2" style="edgeStyle=orthogonalEdgeStyle;orthogonalLoop=1;jettySize=auto;html=1;curved=1;entryX=0;entryY=0.5;entryDx=0;entryDy=0;dashed=1;dashPattern=1 4;exitX=0.5;exitY=1;exitDx=0;exitDy=0;fillColor=#dae8fc;strokeColor=#6c8ebf;" parent="aC-6cmxcRIZIMmVNyTmy-1" source="aC-6cmxcRIZIMmVNyTmy-5" target="aC-6cmxcRIZIMmVNyTmy-7" edge="1">
          <mxGeometry relative="1" as="geometry" />
        </mxCell>
        <mxCell id="aC-6cmxcRIZIMmVNyTmy-3" style="edgeStyle=orthogonalEdgeStyle;curved=1;orthogonalLoop=1;jettySize=auto;html=1;entryX=0;entryY=0.5;entryDx=0;entryDy=0;exitX=0.5;exitY=1;exitDx=0;exitDy=0;dashed=1;dashPattern=1 4;fillColor=#d5e8d4;strokeColor=#82b366;" parent="aC-6cmxcRIZIMmVNyTmy-1" source="aC-6cmxcRIZIMmVNyTmy-5" target="aC-6cmxcRIZIMmVNyTmy-9" edge="1">
          <mxGeometry relative="1" as="geometry">
            <Array as="points">
              <mxPoint x="60" y="580" />
            </Array>
          </mxGeometry>
        </mxCell>
        <mxCell id="aC-6cmxcRIZIMmVNyTmy-4" style="edgeStyle=orthogonalEdgeStyle;curved=1;orthogonalLoop=1;jettySize=auto;html=1;entryX=0;entryY=0.5;entryDx=0;entryDy=0;fillColor=#f8cecc;strokeColor=#b85450;" parent="aC-6cmxcRIZIMmVNyTmy-1" source="aC-6cmxcRIZIMmVNyTmy-5" target="aC-6cmxcRIZIMmVNyTmy-16" edge="1">
          <mxGeometry relative="1" as="geometry" />
        </mxCell>
        <mxCell id="aC-6cmxcRIZIMmVNyTmy-5" value="0" style="ellipse;whiteSpace=wrap;html=1;aspect=fixed;fillColor=#f8cecc;strokeColor=#b85450;" parent="aC-6cmxcRIZIMmVNyTmy-1" vertex="1">
          <mxGeometry x="40" y="360" width="40" height="40" as="geometry" />
        </mxCell>
        <mxCell id="aC-6cmxcRIZIMmVNyTmy-6" value="" style="edgeStyle=orthogonalEdgeStyle;curved=1;orthogonalLoop=1;jettySize=auto;html=1;exitX=1;exitY=0.5;exitDx=0;exitDy=0;fillColor=#dae8fc;strokeColor=#6c8ebf;" parent="aC-6cmxcRIZIMmVNyTmy-1" source="aC-6cmxcRIZIMmVNyTmy-7" target="aC-6cmxcRIZIMmVNyTmy-11" edge="1">
          <mxGeometry relative="1" as="geometry">
            <mxPoint x="200" y="500" as="sourcePoint" />
          </mxGeometry>
        </mxCell>
        <mxCell id="aC-6cmxcRIZIMmVNyTmy-7" value="1" style="ellipse;whiteSpace=wrap;html=1;aspect=fixed;fillColor=#dae8fc;strokeColor=#6c8ebf;" parent="aC-6cmxcRIZIMmVNyTmy-1" vertex="1">
          <mxGeometry x="120" y="480" width="40" height="40" as="geometry" />
        </mxCell>
        <mxCell id="aC-6cmxcRIZIMmVNyTmy-8" value="" style="edgeStyle=orthogonalEdgeStyle;curved=1;orthogonalLoop=1;jettySize=auto;html=1;exitX=1;exitY=0.5;exitDx=0;exitDy=0;fillColor=#d5e8d4;strokeColor=#82b366;" parent="aC-6cmxcRIZIMmVNyTmy-1" source="aC-6cmxcRIZIMmVNyTmy-9" target="aC-6cmxcRIZIMmVNyTmy-24" edge="1">
          <mxGeometry relative="1" as="geometry">
            <mxPoint x="280" y="580" as="sourcePoint" />
          </mxGeometry>
        </mxCell>
        <mxCell id="aC-6cmxcRIZIMmVNyTmy-9" value="2" style="ellipse;whiteSpace=wrap;html=1;aspect=fixed;fillColor=#d5e8d4;strokeColor=#82b366;" parent="aC-6cmxcRIZIMmVNyTmy-1" vertex="1">
          <mxGeometry x="200" y="560" width="40" height="40" as="geometry" />
        </mxCell>
        <mxCell id="aC-6cmxcRIZIMmVNyTmy-10" value="" style="edgeStyle=orthogonalEdgeStyle;curved=1;orthogonalLoop=1;jettySize=auto;html=1;fillColor=#dae8fc;strokeColor=#6c8ebf;" parent="aC-6cmxcRIZIMmVNyTmy-1" source="aC-6cmxcRIZIMmVNyTmy-11" target="aC-6cmxcRIZIMmVNyTmy-14" edge="1">
          <mxGeometry relative="1" as="geometry" />
        </mxCell>
        <mxCell id="aC-6cmxcRIZIMmVNyTmy-11" value="3" style="ellipse;whiteSpace=wrap;html=1;aspect=fixed;fillColor=#dae8fc;strokeColor=#6c8ebf;" parent="aC-6cmxcRIZIMmVNyTmy-1" vertex="1">
          <mxGeometry x="280" y="480" width="40" height="40" as="geometry" />
        </mxCell>
        <mxCell id="aC-6cmxcRIZIMmVNyTmy-12" style="edgeStyle=orthogonalEdgeStyle;curved=1;orthogonalLoop=1;jettySize=auto;html=1;entryX=0;entryY=0.5;entryDx=0;entryDy=0;startArrow=none;exitX=0.5;exitY=0;exitDx=0;exitDy=0;fillColor=#fff2cc;strokeColor=#d6b656;" parent="aC-6cmxcRIZIMmVNyTmy-1" source="aC-6cmxcRIZIMmVNyTmy-28" target="aC-6cmxcRIZIMmVNyTmy-16" edge="1">
          <mxGeometry relative="1" as="geometry" />
        </mxCell>
        <mxCell id="aC-6cmxcRIZIMmVNyTmy-13" value="Squash &amp;amp; Merge" style="edgeLabel;html=1;align=center;verticalAlign=middle;resizable=0;points=[];" parent="aC-6cmxcRIZIMmVNyTmy-12" vertex="1" connectable="0">
          <mxGeometry x="-0.4667" y="-3" relative="1" as="geometry">
            <mxPoint as="offset" />
          </mxGeometry>
        </mxCell>
        <mxCell id="aC-6cmxcRIZIMmVNyTmy-14" value="4" style="ellipse;whiteSpace=wrap;html=1;aspect=fixed;fillColor=#dae8fc;strokeColor=#6c8ebf;" parent="aC-6cmxcRIZIMmVNyTmy-1" vertex="1">
          <mxGeometry x="360" y="480" width="40" height="40" as="geometry" />
        </mxCell>
        <mxCell id="aC-6cmxcRIZIMmVNyTmy-15" style="edgeStyle=orthogonalEdgeStyle;curved=1;orthogonalLoop=1;jettySize=auto;html=1;entryX=0;entryY=0.5;entryDx=0;entryDy=0;exitX=1;exitY=0.5;exitDx=0;exitDy=0;fillColor=#f8cecc;strokeColor=#b85450;" parent="aC-6cmxcRIZIMmVNyTmy-1" source="aC-6cmxcRIZIMmVNyTmy-16" target="aC-6cmxcRIZIMmVNyTmy-22" edge="1">
          <mxGeometry relative="1" as="geometry">
            <mxPoint x="520" y="380" as="sourcePoint" />
          </mxGeometry>
        </mxCell>
        <mxCell id="aC-6cmxcRIZIMmVNyTmy-16" value="" style="ellipse;whiteSpace=wrap;html=1;aspect=fixed;fillColor=#f8cecc;strokeColor=#b85450;" parent="aC-6cmxcRIZIMmVNyTmy-1" vertex="1">
          <mxGeometry x="440" y="360" width="40" height="40" as="geometry" />
        </mxCell>
        <mxCell id="aC-6cmxcRIZIMmVNyTmy-17" style="edgeStyle=orthogonalEdgeStyle;curved=1;orthogonalLoop=1;jettySize=auto;html=1;entryX=0;entryY=0.5;entryDx=0;entryDy=0;startArrow=none;exitX=0.5;exitY=0;exitDx=0;exitDy=0;fillColor=#fff2cc;strokeColor=#d6b656;" parent="aC-6cmxcRIZIMmVNyTmy-1" source="aC-6cmxcRIZIMmVNyTmy-30" target="aC-6cmxcRIZIMmVNyTmy-22" edge="1">
          <mxGeometry relative="1" as="geometry" />
        </mxCell>
        <mxCell id="aC-6cmxcRIZIMmVNyTmy-18" value="Squash &amp;amp; Merge" style="edgeLabel;html=1;align=center;verticalAlign=middle;resizable=0;points=[];" parent="aC-6cmxcRIZIMmVNyTmy-17" vertex="1" connectable="0">
          <mxGeometry x="-0.18" y="-3" relative="1" as="geometry">
            <mxPoint x="-3" y="15" as="offset" />
          </mxGeometry>
        </mxCell>
        <mxCell id="aC-6cmxcRIZIMmVNyTmy-19" value="6" style="ellipse;whiteSpace=wrap;html=1;aspect=fixed;fillColor=#d5e8d4;strokeColor=#82b366;" parent="aC-6cmxcRIZIMmVNyTmy-1" vertex="1">
          <mxGeometry x="600" y="560" width="40" height="40" as="geometry" />
        </mxCell>
        <mxCell id="aC-6cmxcRIZIMmVNyTmy-20" style="edgeStyle=orthogonalEdgeStyle;curved=1;orthogonalLoop=1;jettySize=auto;html=1;entryX=0;entryY=0.5;entryDx=0;entryDy=0;dashed=1;dashPattern=1 4;strokeColor=#666666;fillColor=#f5f5f5;exitX=0.5;exitY=1;exitDx=0;exitDy=0;" parent="aC-6cmxcRIZIMmVNyTmy-1" source="aC-6cmxcRIZIMmVNyTmy-22" target="aC-6cmxcRIZIMmVNyTmy-35" edge="1">
          <mxGeometry relative="1" as="geometry" />
        </mxCell>
        <mxCell id="aC-6cmxcRIZIMmVNyTmy-21" style="edgeStyle=orthogonalEdgeStyle;curved=1;orthogonalLoop=1;jettySize=auto;html=1;entryX=0;entryY=0.5;entryDx=0;entryDy=0;endArrow=classic;strokeColor=#b85450;fillColor=#f8cecc;" parent="aC-6cmxcRIZIMmVNyTmy-1" source="aC-6cmxcRIZIMmVNyTmy-22" target="aC-6cmxcRIZIMmVNyTmy-45" edge="1">
          <mxGeometry relative="1" as="geometry" />
        </mxCell>
        <mxCell id="aC-6cmxcRIZIMmVNyTmy-22" value="" style="ellipse;whiteSpace=wrap;html=1;aspect=fixed;fillColor=#f8cecc;strokeColor=#b85450;" parent="aC-6cmxcRIZIMmVNyTmy-1" vertex="1">
          <mxGeometry x="680" y="360" width="40" height="40" as="geometry" />
        </mxCell>
        <mxCell id="aC-6cmxcRIZIMmVNyTmy-23" value="" style="edgeStyle=orthogonalEdgeStyle;curved=1;orthogonalLoop=1;jettySize=auto;html=1;fillColor=#d5e8d4;strokeColor=#82b366;" parent="aC-6cmxcRIZIMmVNyTmy-1" source="aC-6cmxcRIZIMmVNyTmy-24" target="aC-6cmxcRIZIMmVNyTmy-19" edge="1">
          <mxGeometry relative="1" as="geometry" />
        </mxCell>
        <mxCell id="aC-6cmxcRIZIMmVNyTmy-24" value="5" style="ellipse;whiteSpace=wrap;html=1;aspect=fixed;fillColor=#d5e8d4;strokeColor=#82b366;" parent="aC-6cmxcRIZIMmVNyTmy-1" vertex="1">
          <mxGeometry x="520" y="560" width="40" height="40" as="geometry" />
        </mxCell>
        <mxCell id="aC-6cmxcRIZIMmVNyTmy-25" value="main" style="text;html=1;strokeColor=#ae4132;align=center;verticalAlign=middle;whiteSpace=wrap;rounded=0;fillColor=#fad9d5;" parent="aC-6cmxcRIZIMmVNyTmy-1" vertex="1">
          <mxGeometry x="-40" y="370" width="40" height="20" as="geometry" />
        </mxCell>
        <mxCell id="aC-6cmxcRIZIMmVNyTmy-26" value="feat/A" style="text;html=1;strokeColor=#6c8ebf;fillColor=#dae8fc;align=center;verticalAlign=middle;whiteSpace=wrap;rounded=0;" parent="aC-6cmxcRIZIMmVNyTmy-1" vertex="1">
          <mxGeometry x="-40" y="490" width="40" height="20" as="geometry" />
        </mxCell>
        <mxCell id="aC-6cmxcRIZIMmVNyTmy-27" value="feat/B" style="text;html=1;strokeColor=#82b366;fillColor=#d5e8d4;align=center;verticalAlign=middle;whiteSpace=wrap;rounded=0;" parent="aC-6cmxcRIZIMmVNyTmy-1" vertex="1">
          <mxGeometry x="-40" y="570" width="40" height="20" as="geometry" />
        </mxCell>
        <mxCell id="aC-6cmxcRIZIMmVNyTmy-28" value="PR" style="rhombus;whiteSpace=wrap;html=1;fillColor=#fff2cc;strokeColor=#d6b656;" parent="aC-6cmxcRIZIMmVNyTmy-1" vertex="1">
          <mxGeometry x="400" y="420" width="40" height="40" as="geometry" />
        </mxCell>
        <mxCell id="aC-6cmxcRIZIMmVNyTmy-29" value="" style="edgeStyle=orthogonalEdgeStyle;curved=1;orthogonalLoop=1;jettySize=auto;html=1;entryX=0.5;entryY=1;entryDx=0;entryDy=0;endArrow=none;exitX=1;exitY=0.5;exitDx=0;exitDy=0;fillColor=#dae8fc;strokeColor=#6c8ebf;" parent="aC-6cmxcRIZIMmVNyTmy-1" source="aC-6cmxcRIZIMmVNyTmy-14" target="aC-6cmxcRIZIMmVNyTmy-28" edge="1">
          <mxGeometry relative="1" as="geometry">
            <mxPoint x="410" y="490" as="sourcePoint" />
            <mxPoint x="400" y="380" as="targetPoint" />
          </mxGeometry>
        </mxCell>
        <mxCell id="aC-6cmxcRIZIMmVNyTmy-30" value="PR" style="rhombus;whiteSpace=wrap;html=1;fillColor=#fff2cc;strokeColor=#d6b656;" parent="aC-6cmxcRIZIMmVNyTmy-1" vertex="1">
          <mxGeometry x="640" y="420" width="40" height="40" as="geometry" />
        </mxCell>
        <mxCell id="aC-6cmxcRIZIMmVNyTmy-31" value="" style="edgeStyle=orthogonalEdgeStyle;curved=1;orthogonalLoop=1;jettySize=auto;html=1;entryX=0.5;entryY=1;entryDx=0;entryDy=0;endArrow=none;exitX=1;exitY=0.5;exitDx=0;exitDy=0;fillColor=#d5e8d4;strokeColor=#82b366;" parent="aC-6cmxcRIZIMmVNyTmy-1" source="aC-6cmxcRIZIMmVNyTmy-19" target="aC-6cmxcRIZIMmVNyTmy-30" edge="1">
          <mxGeometry relative="1" as="geometry">
            <mxPoint x="620" y="560" as="sourcePoint" />
            <mxPoint x="640" y="380" as="targetPoint" />
          </mxGeometry>
        </mxCell>
        <mxCell id="aC-6cmxcRIZIMmVNyTmy-32" style="edgeStyle=orthogonalEdgeStyle;curved=1;orthogonalLoop=1;jettySize=auto;html=1;entryX=0;entryY=0.5;entryDx=0;entryDy=0;exitX=1;exitY=0.5;exitDx=0;exitDy=0;dashed=1;dashPattern=1 4;fillColor=#f8cecc;strokeColor=#b85450;" parent="aC-6cmxcRIZIMmVNyTmy-1" source="aC-6cmxcRIZIMmVNyTmy-16" target="aC-6cmxcRIZIMmVNyTmy-19" edge="1">
          <mxGeometry relative="1" as="geometry">
            <mxPoint x="520" y="380" as="sourcePoint" />
          </mxGeometry>
        </mxCell>
        <mxCell id="aC-6cmxcRIZIMmVNyTmy-33" value="Rebase" style="edgeLabel;html=1;align=center;verticalAlign=middle;resizable=0;points=[];" parent="aC-6cmxcRIZIMmVNyTmy-32" vertex="1" connectable="0">
          <mxGeometry x="0.1857" y="-1" relative="1" as="geometry">
            <mxPoint as="offset" />
          </mxGeometry>
        </mxCell>
        <mxCell id="aC-6cmxcRIZIMmVNyTmy-34" value="" style="edgeStyle=orthogonalEdgeStyle;curved=1;orthogonalLoop=1;jettySize=auto;html=1;strokeColor=#666666;fillColor=#f5f5f5;" parent="aC-6cmxcRIZIMmVNyTmy-1" source="aC-6cmxcRIZIMmVNyTmy-35" target="aC-6cmxcRIZIMmVNyTmy-38" edge="1">
          <mxGeometry relative="1" as="geometry" />
        </mxCell>
        <mxCell id="aC-6cmxcRIZIMmVNyTmy-35" value="7" style="ellipse;whiteSpace=wrap;html=1;aspect=fixed;fillColor=#f5f5f5;strokeColor=#666666;fontColor=#333333;" parent="aC-6cmxcRIZIMmVNyTmy-1" vertex="1">
          <mxGeometry x="800" y="480" width="40" height="40" as="geometry" />
        </mxCell>
        <mxCell id="aC-6cmxcRIZIMmVNyTmy-37" style="edgeStyle=orthogonalEdgeStyle;curved=1;orthogonalLoop=1;jettySize=auto;html=1;entryX=0.5;entryY=1;entryDx=0;entryDy=0;strokeWidth=1;exitX=1;exitY=0.5;exitDx=0;exitDy=0;endArrow=none;endFill=0;fillColor=#f5f5f5;strokeColor=#666666;" parent="aC-6cmxcRIZIMmVNyTmy-1" source="aC-6cmxcRIZIMmVNyTmy-38" target="aC-6cmxcRIZIMmVNyTmy-41" edge="1">
          <mxGeometry relative="1" as="geometry" />
        </mxCell>
        <mxCell id="aC-6cmxcRIZIMmVNyTmy-36" value="feat/C" style="text;html=1;strokeColor=#666666;fillColor=#f5f5f5;align=center;verticalAlign=middle;whiteSpace=wrap;rounded=0;fontColor=#333333;" parent="aC-6cmxcRIZIMmVNyTmy-1" vertex="1">
          <mxGeometry x="720" y="490" width="40" height="20" as="geometry" />
        </mxCell>
        <mxCell id="aC-6cmxcRIZIMmVNyTmy-38" value="8" style="ellipse;whiteSpace=wrap;html=1;aspect=fixed;fillColor=#f5f5f5;strokeColor=#666666;fontColor=#333333;" parent="aC-6cmxcRIZIMmVNyTmy-1" vertex="1">
          <mxGeometry x="880" y="480" width="40" height="40" as="geometry" />
        </mxCell>
        <mxCell id="aC-6cmxcRIZIMmVNyTmy-39" style="edgeStyle=orthogonalEdgeStyle;curved=1;orthogonalLoop=1;jettySize=auto;html=1;entryX=0;entryY=0.5;entryDx=0;entryDy=0;endArrow=classic;strokeColor=#d6b656;fillColor=#fff2cc;" parent="aC-6cmxcRIZIMmVNyTmy-1" source="aC-6cmxcRIZIMmVNyTmy-41" target="aC-6cmxcRIZIMmVNyTmy-45" edge="1">
          <mxGeometry relative="1" as="geometry" />
        </mxCell>
        <mxCell id="aC-6cmxcRIZIMmVNyTmy-40" value="Squash &amp;amp; Merge" style="edgeLabel;html=1;align=center;verticalAlign=middle;resizable=0;points=[];" parent="aC-6cmxcRIZIMmVNyTmy-39" vertex="1" connectable="0">
          <mxGeometry x="-0.4333" y="-3" relative="1" as="geometry">
            <mxPoint x="-13" as="offset" />
          </mxGeometry>
        </mxCell>
        <mxCell id="aC-6cmxcRIZIMmVNyTmy-41" value="PR" style="rhombus;whiteSpace=wrap;html=1;fillColor=#fff2cc;strokeColor=#d6b656;" parent="aC-6cmxcRIZIMmVNyTmy-1" vertex="1">
          <mxGeometry x="920" y="420" width="40" height="40" as="geometry" />
        </mxCell>
        <mxCell id="aC-6cmxcRIZIMmVNyTmy-42" style="edgeStyle=orthogonalEdgeStyle;curved=1;orthogonalLoop=1;jettySize=auto;html=1;entryX=0;entryY=0.5;entryDx=0;entryDy=0;endArrow=classic;strokeColor=#b85450;fillColor=#f8cecc;" parent="aC-6cmxcRIZIMmVNyTmy-1" source="aC-6cmxcRIZIMmVNyTmy-45" target="aC-6cmxcRIZIMmVNyTmy-51" edge="1">
          <mxGeometry relative="1" as="geometry" />
        </mxCell>
        <mxCell id="aC-6cmxcRIZIMmVNyTmy-43" style="edgeStyle=orthogonalEdgeStyle;curved=1;orthogonalLoop=1;jettySize=auto;html=1;entryX=0;entryY=0.5;entryDx=0;entryDy=0;endArrow=classic;dashed=1;dashPattern=1 4;strokeColor=#9673a6;fillColor=#e1d5e7;exitX=1;exitY=0.5;exitDx=0;exitDy=0;" parent="aC-6cmxcRIZIMmVNyTmy-1" source="aC-6cmxcRIZIMmVNyTmy-45" target="aC-6cmxcRIZIMmVNyTmy-48" edge="1">
          <mxGeometry relative="1" as="geometry">
            <Array as="points">
              <mxPoint x="1030" y="380" />
              <mxPoint x="1030" y="500" />
            </Array>
          </mxGeometry>
        </mxCell>
        <mxCell id="aC-6cmxcRIZIMmVNyTmy-44" style="edgeStyle=orthogonalEdgeStyle;curved=1;orthogonalLoop=1;jettySize=auto;html=1;entryX=0;entryY=0.5;entryDx=0;entryDy=0;endArrow=classic;dashed=1;dashPattern=1 4;strokeColor=#666666;fillColor=#f5f5f5;exitX=0.5;exitY=1;exitDx=0;exitDy=0;" parent="aC-6cmxcRIZIMmVNyTmy-1" source="aC-6cmxcRIZIMmVNyTmy-22" target="aC-6cmxcRIZIMmVNyTmy-59" edge="1">
          <mxGeometry relative="1" as="geometry" />
        </mxCell>
        <mxCell id="aC-6cmxcRIZIMmVNyTmy-45" value="" style="ellipse;whiteSpace=wrap;html=1;aspect=fixed;fillColor=#f8cecc;strokeColor=#b85450;" parent="aC-6cmxcRIZIMmVNyTmy-1" vertex="1">
          <mxGeometry x="960" y="360" width="40" height="40" as="geometry" />
        </mxCell>
        <mxCell id="aC-6cmxcRIZIMmVNyTmy-46" value="Fix/1" style="text;html=1;strokeColor=#9673a6;fillColor=#e1d5e7;align=center;verticalAlign=middle;whiteSpace=wrap;rounded=0;" parent="aC-6cmxcRIZIMmVNyTmy-1" vertex="1">
          <mxGeometry x="1000" y="490" width="40" height="20" as="geometry" />
        </mxCell>
        <mxCell id="aC-6cmxcRIZIMmVNyTmy-47" style="edgeStyle=orthogonalEdgeStyle;curved=1;orthogonalLoop=1;jettySize=auto;html=1;entryX=0.5;entryY=1;entryDx=0;entryDy=0;endArrow=none;endFill=0;strokeWidth=1;exitX=1;exitY=0.5;exitDx=0;exitDy=0;fillColor=#e1d5e7;strokeColor=#9673a6;" parent="aC-6cmxcRIZIMmVNyTmy-1" source="aC-6cmxcRIZIMmVNyTmy-48" target="aC-6cmxcRIZIMmVNyTmy-53" edge="1">
          <mxGeometry relative="1" as="geometry" />
        </mxCell>
        <mxCell id="aC-6cmxcRIZIMmVNyTmy-48" value="10" style="ellipse;whiteSpace=wrap;html=1;aspect=fixed;fillColor=#e1d5e7;strokeColor=#9673a6;" parent="aC-6cmxcRIZIMmVNyTmy-1" vertex="1">
          <mxGeometry x="1080" y="480" width="40" height="40" as="geometry" />
        </mxCell>
        <mxCell id="aC-6cmxcRIZIMmVNyTmy-49" style="edgeStyle=orthogonalEdgeStyle;curved=1;orthogonalLoop=1;jettySize=auto;html=1;entryX=0;entryY=0.5;entryDx=0;entryDy=0;endArrow=classic;dashed=1;dashPattern=1 4;strokeColor=#0e8088;fillColor=#b0e3e6;" parent="aC-6cmxcRIZIMmVNyTmy-1" source="aC-6cmxcRIZIMmVNyTmy-51" target="aC-6cmxcRIZIMmVNyTmy-56" edge="1">
          <mxGeometry relative="1" as="geometry" />
        </mxCell>
        <mxCell id="aC-6cmxcRIZIMmVNyTmy-50" style="edgeStyle=orthogonalEdgeStyle;curved=1;orthogonalLoop=1;jettySize=auto;html=1;entryX=0;entryY=0.5;entryDx=0;entryDy=0;endArrow=classic;strokeColor=#b85450;fillColor=#f8cecc;" parent="aC-6cmxcRIZIMmVNyTmy-1" source="aC-6cmxcRIZIMmVNyTmy-51" target="aC-6cmxcRIZIMmVNyTmy-69" edge="1">
          <mxGeometry relative="1" as="geometry" />
        </mxCell>
        <mxCell id="aC-6cmxcRIZIMmVNyTmy-51" value="" style="ellipse;whiteSpace=wrap;html=1;aspect=fixed;fillColor=#f8cecc;strokeColor=#b85450;" parent="aC-6cmxcRIZIMmVNyTmy-1" vertex="1">
          <mxGeometry x="1200" y="360" width="40" height="40" as="geometry" />
        </mxCell>
        <mxCell id="aC-6cmxcRIZIMmVNyTmy-52" style="edgeStyle=orthogonalEdgeStyle;curved=1;orthogonalLoop=1;jettySize=auto;html=1;entryX=0;entryY=0.5;entryDx=0;entryDy=0;endArrow=classic;strokeColor=#9673a6;fillColor=#e1d5e7;exitX=0.5;exitY=0;exitDx=0;exitDy=0;" parent="aC-6cmxcRIZIMmVNyTmy-1" source="aC-6cmxcRIZIMmVNyTmy-53" target="aC-6cmxcRIZIMmVNyTmy-51" edge="1">
          <mxGeometry relative="1" as="geometry">
            <mxPoint x="1180" y="420" as="sourcePoint" />
          </mxGeometry>
        </mxCell>
        <mxCell id="aC-6cmxcRIZIMmVNyTmy-53" value="PR" style="rhombus;whiteSpace=wrap;html=1;fillColor=#e1d5e7;strokeColor=#9673a6;" parent="aC-6cmxcRIZIMmVNyTmy-1" vertex="1">
          <mxGeometry x="1120" y="420" width="40" height="40" as="geometry" />
        </mxCell>
        <mxCell id="aC-6cmxcRIZIMmVNyTmy-54" value="HotFix/1" style="text;html=1;strokeColor=#0e8088;fillColor=#b0e3e6;align=center;verticalAlign=middle;whiteSpace=wrap;rounded=0;" parent="aC-6cmxcRIZIMmVNyTmy-1" vertex="1">
          <mxGeometry x="1230" y="490" width="50" height="20" as="geometry" />
        </mxCell>
        <mxCell id="aC-6cmxcRIZIMmVNyTmy-55" style="edgeStyle=orthogonalEdgeStyle;curved=1;orthogonalLoop=1;jettySize=auto;html=1;entryX=0.5;entryY=1;entryDx=0;entryDy=0;endArrow=none;endFill=0;strokeWidth=1;exitX=1;exitY=0.5;exitDx=0;exitDy=0;fillColor=#b0e3e6;strokeColor=#0e8088;" parent="aC-6cmxcRIZIMmVNyTmy-1" source="aC-6cmxcRIZIMmVNyTmy-56" target="aC-6cmxcRIZIMmVNyTmy-71" edge="1">
          <mxGeometry relative="1" as="geometry" />
        </mxCell>
        <mxCell id="aC-6cmxcRIZIMmVNyTmy-56" value="13" style="ellipse;whiteSpace=wrap;html=1;aspect=fixed;fillColor=#b0e3e6;strokeColor=#0e8088;" parent="aC-6cmxcRIZIMmVNyTmy-1" vertex="1">
          <mxGeometry x="1320" y="480" width="40" height="40" as="geometry" />
        </mxCell>
        <mxCell id="aC-6cmxcRIZIMmVNyTmy-57" value="feat/D" style="text;html=1;strokeColor=#666666;fillColor=#f5f5f5;align=center;verticalAlign=middle;whiteSpace=wrap;rounded=0;fontColor=#333333;" parent="aC-6cmxcRIZIMmVNyTmy-1" vertex="1">
          <mxGeometry x="1000" y="570" width="40" height="20" as="geometry" />
        </mxCell>
        <mxCell id="aC-6cmxcRIZIMmVNyTmy-58" style="edgeStyle=orthogonalEdgeStyle;curved=1;orthogonalLoop=1;jettySize=auto;html=1;entryX=0;entryY=0.5;entryDx=0;entryDy=0;endArrow=classic;strokeColor=#666666;fillColor=#f5f5f5;" parent="aC-6cmxcRIZIMmVNyTmy-1" source="aC-6cmxcRIZIMmVNyTmy-59" target="aC-6cmxcRIZIMmVNyTmy-61" edge="1">
          <mxGeometry relative="1" as="geometry" />
        </mxCell>
        <mxCell id="aC-6cmxcRIZIMmVNyTmy-59" value="9" style="ellipse;whiteSpace=wrap;html=1;aspect=fixed;fillColor=#f5f5f5;strokeColor=#666666;fontColor=#333333;" parent="aC-6cmxcRIZIMmVNyTmy-1" vertex="1">
          <mxGeometry x="1080" y="560" width="40" height="40" as="geometry" />
        </mxCell>
        <mxCell id="aC-6cmxcRIZIMmVNyTmy-60" value="" style="edgeStyle=orthogonalEdgeStyle;curved=1;orthogonalLoop=1;jettySize=auto;html=1;endArrow=classic;strokeColor=#666666;fillColor=#f5f5f5;" parent="aC-6cmxcRIZIMmVNyTmy-1" source="aC-6cmxcRIZIMmVNyTmy-61" target="aC-6cmxcRIZIMmVNyTmy-63" edge="1">
          <mxGeometry relative="1" as="geometry" />
        </mxCell>
        <mxCell id="aC-6cmxcRIZIMmVNyTmy-61" value="11" style="ellipse;whiteSpace=wrap;html=1;aspect=fixed;fillColor=#f5f5f5;strokeColor=#666666;fontColor=#333333;" parent="aC-6cmxcRIZIMmVNyTmy-1" vertex="1">
          <mxGeometry x="1160" y="560" width="40" height="40" as="geometry" />
        </mxCell>
        <mxCell id="aC-6cmxcRIZIMmVNyTmy-62" style="edgeStyle=orthogonalEdgeStyle;curved=1;orthogonalLoop=1;jettySize=auto;html=1;entryX=0;entryY=0.5;entryDx=0;entryDy=0;endArrow=classic;strokeColor=#666666;fillColor=#f5f5f5;" parent="aC-6cmxcRIZIMmVNyTmy-1" source="aC-6cmxcRIZIMmVNyTmy-63" target="aC-6cmxcRIZIMmVNyTmy-65" edge="1">
          <mxGeometry relative="1" as="geometry" />
        </mxCell>
        <mxCell id="aC-6cmxcRIZIMmVNyTmy-63" value="12" style="ellipse;whiteSpace=wrap;html=1;aspect=fixed;fillColor=#f5f5f5;strokeColor=#666666;fontColor=#333333;" parent="aC-6cmxcRIZIMmVNyTmy-1" vertex="1">
          <mxGeometry x="1240" y="560" width="40" height="40" as="geometry" />
        </mxCell>
        <mxCell id="aC-6cmxcRIZIMmVNyTmy-64" value="" style="edgeStyle=orthogonalEdgeStyle;curved=1;orthogonalLoop=1;jettySize=auto;html=1;endArrow=classic;strokeColor=#666666;fillColor=#f5f5f5;" parent="aC-6cmxcRIZIMmVNyTmy-1" source="aC-6cmxcRIZIMmVNyTmy-65" target="aC-6cmxcRIZIMmVNyTmy-73" edge="1">
          <mxGeometry relative="1" as="geometry" />
        </mxCell>
        <mxCell id="aC-6cmxcRIZIMmVNyTmy-65" value="14" style="ellipse;whiteSpace=wrap;html=1;aspect=fixed;fillColor=#f5f5f5;strokeColor=#666666;fontColor=#333333;" parent="aC-6cmxcRIZIMmVNyTmy-1" vertex="1">
          <mxGeometry x="1400" y="560" width="40" height="40" as="geometry" />
        </mxCell>
        <mxCell id="aC-6cmxcRIZIMmVNyTmy-66" style="edgeStyle=orthogonalEdgeStyle;curved=1;orthogonalLoop=1;jettySize=auto;html=1;entryX=0;entryY=0.5;entryDx=0;entryDy=0;endArrow=classic;dashed=1;dashPattern=1 4;strokeColor=#b85450;fillColor=#f8cecc;" parent="aC-6cmxcRIZIMmVNyTmy-1" source="aC-6cmxcRIZIMmVNyTmy-69" target="aC-6cmxcRIZIMmVNyTmy-73" edge="1">
          <mxGeometry relative="1" as="geometry" />
        </mxCell>
        <mxCell id="aC-6cmxcRIZIMmVNyTmy-67" value="Rebase" style="edgeLabel;html=1;align=center;verticalAlign=middle;resizable=0;points=[];" parent="aC-6cmxcRIZIMmVNyTmy-66" vertex="1" connectable="0">
          <mxGeometry x="0.2833" y="2" relative="1" as="geometry">
            <mxPoint y="-28" as="offset" />
          </mxGeometry>
        </mxCell>
        <mxCell id="aC-6cmxcRIZIMmVNyTmy-68" style="edgeStyle=orthogonalEdgeStyle;curved=1;orthogonalLoop=1;jettySize=auto;html=1;entryX=0;entryY=0.5;entryDx=0;entryDy=0;endArrow=classic;strokeColor=#b85450;fillColor=#f8cecc;" parent="aC-6cmxcRIZIMmVNyTmy-1" source="aC-6cmxcRIZIMmVNyTmy-69" edge="1">
          <mxGeometry relative="1" as="geometry">
            <mxPoint x="1880" y="380" as="targetPoint" />
          </mxGeometry>
        </mxCell>
        <mxCell id="aC-6cmxcRIZIMmVNyTmy-69" value="" style="ellipse;whiteSpace=wrap;html=1;aspect=fixed;fillColor=#f8cecc;strokeColor=#b85450;" parent="aC-6cmxcRIZIMmVNyTmy-1" vertex="1">
          <mxGeometry x="1440" y="360" width="40" height="40" as="geometry" />
        </mxCell>
        <mxCell id="aC-6cmxcRIZIMmVNyTmy-70" style="edgeStyle=orthogonalEdgeStyle;curved=1;orthogonalLoop=1;jettySize=auto;html=1;exitX=0.5;exitY=0;exitDx=0;exitDy=0;entryX=0;entryY=0.5;entryDx=0;entryDy=0;endArrow=classic;strokeColor=#0e8088;fillColor=#b0e3e6;" parent="aC-6cmxcRIZIMmVNyTmy-1" source="aC-6cmxcRIZIMmVNyTmy-71" target="aC-6cmxcRIZIMmVNyTmy-69" edge="1">
          <mxGeometry relative="1" as="geometry" />
        </mxCell>
        <mxCell id="aC-6cmxcRIZIMmVNyTmy-71" value="PR" style="rhombus;whiteSpace=wrap;html=1;fillColor=#b0e3e6;strokeColor=#0e8088;" parent="aC-6cmxcRIZIMmVNyTmy-1" vertex="1">
          <mxGeometry x="1360" y="420" width="40" height="40" as="geometry" />
        </mxCell>
        <mxCell id="aC-6cmxcRIZIMmVNyTmy-72" style="edgeStyle=orthogonalEdgeStyle;curved=1;orthogonalLoop=1;jettySize=auto;html=1;exitX=1;exitY=0.5;exitDx=0;exitDy=0;entryX=0.5;entryY=1;entryDx=0;entryDy=0;endArrow=none;endFill=0;strokeWidth=1;strokeColor=#666666;fillColor=#f5f5f5;" parent="aC-6cmxcRIZIMmVNyTmy-1" source="aC-6cmxcRIZIMmVNyTmy-73" target="aC-6cmxcRIZIMmVNyTmy-74" edge="1">
          <mxGeometry relative="1" as="geometry" />
        </mxCell>
        <mxCell id="aC-6cmxcRIZIMmVNyTmy-73" value="15" style="ellipse;whiteSpace=wrap;html=1;aspect=fixed;fillColor=#f5f5f5;strokeColor=#666666;fontColor=#333333;" parent="aC-6cmxcRIZIMmVNyTmy-1" vertex="1">
          <mxGeometry x="1480" y="560" width="40" height="40" as="geometry" />
        </mxCell>
        <mxCell id="aC-6cmxcRIZIMmVNyTmy-74" value="PR" style="rhombus;whiteSpace=wrap;html=1;fillColor=#fff2cc;strokeColor=#d6b656;" parent="aC-6cmxcRIZIMmVNyTmy-1" vertex="1">
          <mxGeometry x="1520" y="420" width="40" height="40" as="geometry" />
        </mxCell>
        <mxCell id="aC-6cmxcRIZIMmVNyTmy-76" value="16" style="ellipse;whiteSpace=wrap;html=1;aspect=fixed;fillColor=#f5f5f5;strokeColor=#666666;fontColor=#333333;" parent="aC-6cmxcRIZIMmVNyTmy-1" vertex="1">
          <mxGeometry x="1640" y="560" width="40" height="40" as="geometry" />
        </mxCell>
        <mxCell id="aC-6cmxcRIZIMmVNyTmy-77" value="17" style="ellipse;whiteSpace=wrap;html=1;aspect=fixed;fillColor=#f5f5f5;strokeColor=#666666;fontColor=#333333;" parent="aC-6cmxcRIZIMmVNyTmy-1" vertex="1">
          <mxGeometry x="1800" y="560" width="40" height="40" as="geometry" />
        </mxCell>
        <mxCell id="aC-6cmxcRIZIMmVNyTmy-78" value="PR" style="rhombus;whiteSpace=wrap;html=1;fillColor=#fff2cc;strokeColor=#d6b656;" parent="aC-6cmxcRIZIMmVNyTmy-1" vertex="1">
          <mxGeometry x="1680" y="420" width="40" height="40" as="geometry" />
        </mxCell>
        <mxCell id="aC-6cmxcRIZIMmVNyTmy-81" style="edgeStyle=none;rounded=1;orthogonalLoop=1;jettySize=auto;html=1;entryX=0;entryY=0.5;entryDx=0;entryDy=0;fontSize=11;endArrow=classic;strokeColor=#666666;fillColor=#f5f5f5;" parent="aC-6cmxcRIZIMmVNyTmy-1" target="aC-6cmxcRIZIMmVNyTmy-76" edge="1">
          <mxGeometry relative="1" as="geometry">
            <mxPoint x="1520" y="580" as="sourcePoint" />
            <mxPoint x="1600" y="580" as="targetPoint" />
          </mxGeometry>
        </mxCell>
        <mxCell id="aC-6cmxcRIZIMmVNyTmy-82" style="edgeStyle=none;rounded=1;orthogonalLoop=1;jettySize=auto;html=1;entryX=0;entryY=0.5;entryDx=0;entryDy=0;fontSize=11;endArrow=classic;strokeColor=#666666;fillColor=#f5f5f5;exitX=1;exitY=0.5;exitDx=0;exitDy=0;" parent="aC-6cmxcRIZIMmVNyTmy-1" source="aC-6cmxcRIZIMmVNyTmy-76" target="aC-6cmxcRIZIMmVNyTmy-77" edge="1">
          <mxGeometry relative="1" as="geometry">
            <mxPoint x="1680" y="580" as="sourcePoint" />
            <mxPoint x="1760" y="580" as="targetPoint" />
          </mxGeometry>
        </mxCell>
        <mxCell id="aC-6cmxcRIZIMmVNyTmy-83" style="edgeStyle=orthogonalEdgeStyle;orthogonalLoop=1;jettySize=auto;html=1;entryX=0.5;entryY=1;entryDx=0;entryDy=0;fontSize=11;endArrow=none;endFill=0;strokeWidth=1;strokeColor=#666666;fillColor=#f5f5f5;curved=1;exitX=1;exitY=0.5;exitDx=0;exitDy=0;" parent="aC-6cmxcRIZIMmVNyTmy-1" source="aC-6cmxcRIZIMmVNyTmy-76" edge="1">
          <mxGeometry relative="1" as="geometry">
            <mxPoint x="1680" y="580" as="sourcePoint" />
            <mxPoint x="1700" y="460" as="targetPoint" />
          </mxGeometry>
        </mxCell>
        <mxCell id="aC-6cmxcRIZIMmVNyTmy-84" style="edgeStyle=orthogonalEdgeStyle;orthogonalLoop=1;jettySize=auto;html=1;entryX=0.5;entryY=1;entryDx=0;entryDy=0;fontSize=11;endArrow=none;endFill=0;strokeWidth=1;strokeColor=#666666;fillColor=#f5f5f5;curved=1;exitX=1;exitY=0.5;exitDx=0;exitDy=0;" parent="aC-6cmxcRIZIMmVNyTmy-1" source="aC-6cmxcRIZIMmVNyTmy-77" edge="1">
          <mxGeometry relative="1" as="geometry">
            <mxPoint x="1800" y="580" as="sourcePoint" />
            <mxPoint x="1860" y="460" as="targetPoint" />
          </mxGeometry>
        </mxCell>
        <mxCell id="CyZ546wctjjTr-zOGgrK-11" style="edgeStyle=orthogonalEdgeStyle;curved=1;orthogonalLoop=1;jettySize=auto;html=1;entryX=0;entryY=0.5;entryDx=0;entryDy=0;endArrow=classic;dashed=1;dashPattern=1 4;strokeColor=#0e8088;fillColor=#b0e3e6;exitX=0.5;exitY=1;exitDx=0;exitDy=0;" parent="aC-6cmxcRIZIMmVNyTmy-1" source="aC-6cmxcRIZIMmVNyTmy-69" edge="1">
          <mxGeometry relative="1" as="geometry">
            <mxPoint x="1250" y="390.0000000000001" as="sourcePoint" />
            <mxPoint x="2000" y="500" as="targetPoint" />
            <Array as="points">
              <mxPoint x="1460" y="500" />
            </Array>
          </mxGeometry>
        </mxCell>
        <mxCell id="CyZ546wctjjTr-zOGgrK-34" value="" style="ellipse;whiteSpace=wrap;html=1;aspect=fixed;fillColor=#f8cecc;strokeColor=#b85450;" parent="aC-6cmxcRIZIMmVNyTmy-1" vertex="1">
          <mxGeometry x="1880" y="360" width="40" height="40" as="geometry" />
        </mxCell>
        <mxCell id="CyZ546wctjjTr-zOGgrK-35" value="Squash &amp;amp; Merge" style="edgeStyle=orthogonalEdgeStyle;curved=1;orthogonalLoop=1;jettySize=auto;html=1;exitX=0.5;exitY=0;exitDx=0;exitDy=0;entryX=0;entryY=0.5;entryDx=0;entryDy=0;fontSize=11;endArrow=classic;strokeColor=#d6b656;fillColor=#fff2cc;" parent="aC-6cmxcRIZIMmVNyTmy-1" source="CyZ546wctjjTr-zOGgrK-36" target="CyZ546wctjjTr-zOGgrK-34" edge="1">
          <mxGeometry x="-0.6665" relative="1" as="geometry">
            <mxPoint as="offset" />
          </mxGeometry>
        </mxCell>
        <mxCell id="CyZ546wctjjTr-zOGgrK-36" value="PR" style="rhombus;whiteSpace=wrap;html=1;fillColor=#fff2cc;strokeColor=#d6b656;" parent="aC-6cmxcRIZIMmVNyTmy-1" vertex="1">
          <mxGeometry x="1840" y="420" width="40" height="40" as="geometry" />
        </mxCell>
        <mxCell id="CyZ546wctjjTr-zOGgrK-37" value="HotFix/2" style="text;html=1;strokeColor=#0e8088;fillColor=#b0e3e6;align=center;verticalAlign=middle;whiteSpace=wrap;rounded=0;" parent="aC-6cmxcRIZIMmVNyTmy-1" vertex="1">
          <mxGeometry x="1910" y="490" width="50" height="20" as="geometry" />
        </mxCell>
        <mxCell id="CyZ546wctjjTr-zOGgrK-38" value="18" style="ellipse;whiteSpace=wrap;html=1;aspect=fixed;fillColor=#b0e3e6;strokeColor=#0e8088;" parent="aC-6cmxcRIZIMmVNyTmy-1" vertex="1">
          <mxGeometry x="2000" y="480" width="40" height="40" as="geometry" />
        </mxCell>
        <mxCell id="CyZ546wctjjTr-zOGgrK-39" value="PR" style="rhombus;whiteSpace=wrap;html=1;fillColor=#b0e3e6;strokeColor=#0e8088;" parent="aC-6cmxcRIZIMmVNyTmy-1" vertex="1">
          <mxGeometry x="2040" y="420" width="40" height="40" as="geometry" />
        </mxCell>
        <mxCell id="CyZ546wctjjTr-zOGgrK-40" value="19" style="ellipse;whiteSpace=wrap;html=1;aspect=fixed;fillColor=#b0e3e6;strokeColor=#0e8088;" parent="aC-6cmxcRIZIMmVNyTmy-1" vertex="1">
          <mxGeometry x="2120" y="480" width="40" height="40" as="geometry" />
        </mxCell>
        <mxCell id="CyZ546wctjjTr-zOGgrK-41" value="20" style="ellipse;whiteSpace=wrap;html=1;aspect=fixed;fillColor=#b0e3e6;strokeColor=#0e8088;" parent="aC-6cmxcRIZIMmVNyTmy-1" vertex="1">
          <mxGeometry x="2240" y="480" width="40" height="40" as="geometry" />
        </mxCell>
        <mxCell id="CyZ546wctjjTr-zOGgrK-42" value="PR" style="rhombus;whiteSpace=wrap;html=1;fillColor=#b0e3e6;strokeColor=#0e8088;" parent="aC-6cmxcRIZIMmVNyTmy-1" vertex="1">
          <mxGeometry x="2160" y="420" width="40" height="40" as="geometry" />
        </mxCell>
        <mxCell id="CyZ546wctjjTr-zOGgrK-43" value="PR" style="rhombus;whiteSpace=wrap;html=1;fillColor=#b0e3e6;strokeColor=#0e8088;" parent="aC-6cmxcRIZIMmVNyTmy-1" vertex="1">
          <mxGeometry x="2280" y="420" width="40" height="40" as="geometry" />
        </mxCell>
        <mxCell id="CyZ546wctjjTr-zOGgrK-44" value="" style="ellipse;whiteSpace=wrap;html=1;aspect=fixed;fillColor=#f8cecc;strokeColor=#b85450;" parent="aC-6cmxcRIZIMmVNyTmy-1" vertex="1">
          <mxGeometry x="2360" y="360" width="40" height="40" as="geometry" />
        </mxCell>
        <mxCell id="CyZ546wctjjTr-zOGgrK-45" style="edgeStyle=orthogonalEdgeStyle;curved=1;orthogonalLoop=1;jettySize=auto;html=1;exitX=1;exitY=0.5;exitDx=0;exitDy=0;entryX=0;entryY=0.5;entryDx=0;entryDy=0;strokeColor=#b85450;fillColor=#f8cecc;" parent="aC-6cmxcRIZIMmVNyTmy-1" target="CyZ546wctjjTr-zOGgrK-44" edge="1">
          <mxGeometry relative="1" as="geometry">
            <mxPoint x="1920" y="380" as="sourcePoint" />
          </mxGeometry>
        </mxCell>
        <mxCell id="CyZ546wctjjTr-zOGgrK-46" style="edgeStyle=orthogonalEdgeStyle;curved=1;orthogonalLoop=1;jettySize=auto;html=1;exitX=1;exitY=0.5;exitDx=0;exitDy=0;entryX=0.5;entryY=1;entryDx=0;entryDy=0;strokeColor=#0e8088;strokeWidth=1;fillColor=#b0e3e6;endFill=0;endArrow=none;" parent="aC-6cmxcRIZIMmVNyTmy-1" source="CyZ546wctjjTr-zOGgrK-38" target="CyZ546wctjjTr-zOGgrK-39" edge="1">
          <mxGeometry relative="1" as="geometry" />
        </mxCell>
        <mxCell id="CyZ546wctjjTr-zOGgrK-47" style="edgeStyle=orthogonalEdgeStyle;curved=1;orthogonalLoop=1;jettySize=auto;html=1;entryX=0;entryY=0.5;entryDx=0;entryDy=0;fillColor=#b0e3e6;strokeColor=#0e8088;" parent="aC-6cmxcRIZIMmVNyTmy-1" source="CyZ546wctjjTr-zOGgrK-38" target="CyZ546wctjjTr-zOGgrK-40" edge="1">
          <mxGeometry relative="1" as="geometry" />
        </mxCell>
        <mxCell id="CyZ546wctjjTr-zOGgrK-48" style="edgeStyle=orthogonalEdgeStyle;curved=1;orthogonalLoop=1;jettySize=auto;html=1;exitX=1;exitY=0.5;exitDx=0;exitDy=0;entryX=0;entryY=0.5;entryDx=0;entryDy=0;fillColor=#b0e3e6;strokeColor=#0e8088;" parent="aC-6cmxcRIZIMmVNyTmy-1" source="CyZ546wctjjTr-zOGgrK-40" target="CyZ546wctjjTr-zOGgrK-41" edge="1">
          <mxGeometry relative="1" as="geometry" />
        </mxCell>
        <mxCell id="CyZ546wctjjTr-zOGgrK-49" style="edgeStyle=orthogonalEdgeStyle;curved=1;orthogonalLoop=1;jettySize=auto;html=1;exitX=1;exitY=0.5;exitDx=0;exitDy=0;entryX=0.5;entryY=1;entryDx=0;entryDy=0;strokeColor=#0e8088;strokeWidth=1;fillColor=#b0e3e6;endFill=0;endArrow=none;" parent="aC-6cmxcRIZIMmVNyTmy-1" source="CyZ546wctjjTr-zOGgrK-40" target="CyZ546wctjjTr-zOGgrK-42" edge="1">
          <mxGeometry relative="1" as="geometry">
            <mxPoint x="2050" y="510" as="sourcePoint" />
            <mxPoint x="2070" y="470" as="targetPoint" />
          </mxGeometry>
        </mxCell>
        <mxCell id="CyZ546wctjjTr-zOGgrK-50" style="edgeStyle=orthogonalEdgeStyle;curved=1;orthogonalLoop=1;jettySize=auto;html=1;exitX=1;exitY=0.5;exitDx=0;exitDy=0;entryX=0.5;entryY=1;entryDx=0;entryDy=0;strokeColor=#0e8088;strokeWidth=1;fillColor=#b0e3e6;endFill=0;endArrow=none;" parent="aC-6cmxcRIZIMmVNyTmy-1" source="CyZ546wctjjTr-zOGgrK-41" target="CyZ546wctjjTr-zOGgrK-43" edge="1">
          <mxGeometry relative="1" as="geometry">
            <mxPoint x="2170" y="510" as="sourcePoint" />
            <mxPoint x="2190" y="470" as="targetPoint" />
          </mxGeometry>
        </mxCell>
        <mxCell id="CyZ546wctjjTr-zOGgrK-51" value="Squash &amp;amp; Merge" style="edgeStyle=orthogonalEdgeStyle;curved=1;orthogonalLoop=1;jettySize=auto;html=1;exitX=0.5;exitY=0;exitDx=0;exitDy=0;entryX=0;entryY=0.5;entryDx=0;entryDy=0;fillColor=#b0e3e6;strokeColor=#0e8088;" parent="aC-6cmxcRIZIMmVNyTmy-1" source="CyZ546wctjjTr-zOGgrK-43" edge="1">
          <mxGeometry x="-0.6" relative="1" as="geometry">
            <mxPoint x="2359.999999999899" y="380" as="targetPoint" />
            <mxPoint as="offset" />
            <Array as="points">
              <mxPoint x="2300" y="380" />
            </Array>
          </mxGeometry>
        </mxCell>
        <mxCell id="aC-6cmxcRIZIMmVNyTmy-86" value="Despliegues" parent="0" />
        <mxCell id="aC-6cmxcRIZIMmVNyTmy-87" value="Development" style="rounded=1;whiteSpace=wrap;html=1;horizontal=0;align=right;verticalAlign=bottom;labelPosition=left;verticalLabelPosition=middle;" parent="aC-6cmxcRIZIMmVNyTmy-86" vertex="1">
          <mxGeometry x="80" y="670" width="2330" height="70" as="geometry" />
        </mxCell>
        <mxCell id="aC-6cmxcRIZIMmVNyTmy-88" style="edgeStyle=orthogonalEdgeStyle;curved=1;orthogonalLoop=1;jettySize=auto;html=1;entryX=0.5;entryY=0;entryDx=0;entryDy=0;dashed=1;fillColor=#dae8fc;strokeColor=#6c8ebf;exitX=0.5;exitY=1;exitDx=0;exitDy=0;" parent="aC-6cmxcRIZIMmVNyTmy-86" source="aC-6cmxcRIZIMmVNyTmy-7" target="aC-6cmxcRIZIMmVNyTmy-96" edge="1">
          <mxGeometry relative="1" as="geometry">
            <mxPoint x="140" y="540" as="sourcePoint" />
          </mxGeometry>
        </mxCell>
        <mxCell id="aC-6cmxcRIZIMmVNyTmy-89" style="edgeStyle=orthogonalEdgeStyle;curved=1;orthogonalLoop=1;jettySize=auto;html=1;dashed=1;fillColor=#d5e8d4;strokeColor=#82b366;" parent="aC-6cmxcRIZIMmVNyTmy-86" target="aC-6cmxcRIZIMmVNyTmy-97" edge="1">
          <mxGeometry relative="1" as="geometry">
            <mxPoint x="220" y="599.9999999999998" as="sourcePoint" />
          </mxGeometry>
        </mxCell>
        <mxCell id="aC-6cmxcRIZIMmVNyTmy-90" style="edgeStyle=orthogonalEdgeStyle;curved=1;orthogonalLoop=1;jettySize=auto;html=1;entryX=0.5;entryY=0;entryDx=0;entryDy=0;dashed=1;fillColor=#dae8fc;strokeColor=#6c8ebf;exitX=0.5;exitY=1;exitDx=0;exitDy=0;" parent="aC-6cmxcRIZIMmVNyTmy-86" source="aC-6cmxcRIZIMmVNyTmy-11" target="aC-6cmxcRIZIMmVNyTmy-100" edge="1">
          <mxGeometry relative="1" as="geometry">
            <mxPoint x="300" y="540" as="sourcePoint" />
          </mxGeometry>
        </mxCell>
        <mxCell id="aC-6cmxcRIZIMmVNyTmy-91" style="edgeStyle=orthogonalEdgeStyle;curved=1;orthogonalLoop=1;jettySize=auto;html=1;dashed=1;fillColor=#dae8fc;strokeColor=#6c8ebf;exitX=0.5;exitY=1;exitDx=0;exitDy=0;" parent="aC-6cmxcRIZIMmVNyTmy-86" source="aC-6cmxcRIZIMmVNyTmy-14" target="aC-6cmxcRIZIMmVNyTmy-101" edge="1">
          <mxGeometry relative="1" as="geometry">
            <mxPoint x="380" y="550" as="sourcePoint" />
          </mxGeometry>
        </mxCell>
        <mxCell id="aC-6cmxcRIZIMmVNyTmy-92" style="edgeStyle=orthogonalEdgeStyle;curved=1;orthogonalLoop=1;jettySize=auto;html=1;dashed=1;fillColor=#d5e8d4;strokeColor=#82b366;" parent="aC-6cmxcRIZIMmVNyTmy-86" target="aC-6cmxcRIZIMmVNyTmy-99" edge="1">
          <mxGeometry relative="1" as="geometry">
            <mxPoint x="620" y="599.9999999999998" as="sourcePoint" />
          </mxGeometry>
        </mxCell>
        <mxCell id="aC-6cmxcRIZIMmVNyTmy-93" style="edgeStyle=orthogonalEdgeStyle;curved=1;orthogonalLoop=1;jettySize=auto;html=1;entryX=0.5;entryY=0;entryDx=0;entryDy=0;dashed=1;fillColor=#d5e8d4;strokeColor=#82b366;" parent="aC-6cmxcRIZIMmVNyTmy-86" target="aC-6cmxcRIZIMmVNyTmy-98" edge="1">
          <mxGeometry relative="1" as="geometry">
            <mxPoint x="540.0000000000005" y="599.9999999999998" as="sourcePoint" />
          </mxGeometry>
        </mxCell>
        <mxCell id="aC-6cmxcRIZIMmVNyTmy-94" style="edgeStyle=orthogonalEdgeStyle;curved=1;orthogonalLoop=1;jettySize=auto;html=1;entryX=0.5;entryY=0;entryDx=0;entryDy=0;dashed=1;exitX=1;exitY=0.5;exitDx=0;exitDy=0;fillColor=#fff2cc;strokeColor=#d6b656;" parent="aC-6cmxcRIZIMmVNyTmy-86" source="aC-6cmxcRIZIMmVNyTmy-28" target="aC-6cmxcRIZIMmVNyTmy-102" edge="1">
          <mxGeometry relative="1" as="geometry">
            <mxPoint x="440" y="439.9999999999998" as="sourcePoint" />
            <Array as="points">
              <mxPoint x="460" y="440" />
            </Array>
          </mxGeometry>
        </mxCell>
        <mxCell id="aC-6cmxcRIZIMmVNyTmy-95" style="edgeStyle=orthogonalEdgeStyle;curved=1;orthogonalLoop=1;jettySize=auto;html=1;entryX=0.5;entryY=0;entryDx=0;entryDy=0;dashed=1;exitX=1;exitY=0.5;exitDx=0;exitDy=0;fillColor=#fff2cc;strokeColor=#d6b656;" parent="aC-6cmxcRIZIMmVNyTmy-86" source="aC-6cmxcRIZIMmVNyTmy-30" target="aC-6cmxcRIZIMmVNyTmy-103" edge="1">
          <mxGeometry relative="1" as="geometry">
            <mxPoint x="680" y="439.9999999999998" as="sourcePoint" />
          </mxGeometry>
        </mxCell>
        <mxCell id="aC-6cmxcRIZIMmVNyTmy-96" value="APP-A" style="shape=step;perimeter=stepPerimeter;whiteSpace=wrap;html=1;fixedSize=1;size=10;fillColor=#dae8fc;strokeColor=#6c8ebf;" parent="aC-6cmxcRIZIMmVNyTmy-86" vertex="1">
          <mxGeometry x="110" y="690" width="60" height="40" as="geometry" />
        </mxCell>
        <mxCell id="aC-6cmxcRIZIMmVNyTmy-97" value="APP-B" style="shape=step;perimeter=stepPerimeter;whiteSpace=wrap;html=1;fixedSize=1;size=10;fillColor=#d5e8d4;strokeColor=#82b366;" parent="aC-6cmxcRIZIMmVNyTmy-86" vertex="1">
          <mxGeometry x="190" y="690" width="60" height="40" as="geometry" />
        </mxCell>
        <mxCell id="aC-6cmxcRIZIMmVNyTmy-98" value="APP-B" style="shape=step;perimeter=stepPerimeter;whiteSpace=wrap;html=1;fixedSize=1;size=10;fillColor=#d5e8d4;strokeColor=#82b366;" parent="aC-6cmxcRIZIMmVNyTmy-86" vertex="1">
          <mxGeometry x="510" y="690" width="60" height="40" as="geometry" />
        </mxCell>
        <mxCell id="aC-6cmxcRIZIMmVNyTmy-99" value="APP-B" style="shape=step;perimeter=stepPerimeter;whiteSpace=wrap;html=1;fixedSize=1;size=10;fillColor=#d5e8d4;strokeColor=#82b366;" parent="aC-6cmxcRIZIMmVNyTmy-86" vertex="1">
          <mxGeometry x="590" y="690" width="60" height="40" as="geometry" />
        </mxCell>
        <mxCell id="aC-6cmxcRIZIMmVNyTmy-100" value="APP-A" style="shape=step;perimeter=stepPerimeter;whiteSpace=wrap;html=1;fixedSize=1;size=10;fillColor=#dae8fc;strokeColor=#6c8ebf;" parent="aC-6cmxcRIZIMmVNyTmy-86" vertex="1">
          <mxGeometry x="270" y="690" width="60" height="40" as="geometry" />
        </mxCell>
        <mxCell id="aC-6cmxcRIZIMmVNyTmy-101" value="APP-A" style="shape=step;perimeter=stepPerimeter;whiteSpace=wrap;html=1;fixedSize=1;size=10;fillColor=#dae8fc;strokeColor=#6c8ebf;" parent="aC-6cmxcRIZIMmVNyTmy-86" vertex="1">
          <mxGeometry x="350" y="690" width="60" height="40" as="geometry" />
        </mxCell>
        <mxCell id="aC-6cmxcRIZIMmVNyTmy-102" value="APP" style="shape=step;perimeter=stepPerimeter;whiteSpace=wrap;html=1;fixedSize=1;size=10;fillColor=#fff2cc;strokeColor=#d6b656;" parent="aC-6cmxcRIZIMmVNyTmy-86" vertex="1">
          <mxGeometry x="430" y="690" width="60" height="40" as="geometry" />
        </mxCell>
        <mxCell id="aC-6cmxcRIZIMmVNyTmy-103" value="APP" style="shape=step;perimeter=stepPerimeter;whiteSpace=wrap;html=1;fixedSize=1;size=10;fillColor=#fff2cc;strokeColor=#d6b656;" parent="aC-6cmxcRIZIMmVNyTmy-86" vertex="1">
          <mxGeometry x="670" y="690" width="60" height="40" as="geometry" />
        </mxCell>
        <mxCell id="aC-6cmxcRIZIMmVNyTmy-104" style="edgeStyle=orthogonalEdgeStyle;curved=1;orthogonalLoop=1;jettySize=auto;html=1;entryX=0.5;entryY=0;entryDx=0;entryDy=0;endArrow=classic;dashed=1;strokeColor=#666666;fillColor=#f5f5f5;exitX=0.5;exitY=1;exitDx=0;exitDy=0;" parent="aC-6cmxcRIZIMmVNyTmy-86" source="aC-6cmxcRIZIMmVNyTmy-35" target="aC-6cmxcRIZIMmVNyTmy-105" edge="1">
          <mxGeometry relative="1" as="geometry">
            <mxPoint x="820" y="540" as="sourcePoint" />
          </mxGeometry>
        </mxCell>
        <mxCell id="aC-6cmxcRIZIMmVNyTmy-105" value="APP-C" style="shape=step;perimeter=stepPerimeter;whiteSpace=wrap;html=1;fixedSize=1;size=10;fillColor=#f5f5f5;strokeColor=#666666;fontColor=#333333;" parent="aC-6cmxcRIZIMmVNyTmy-86" vertex="1">
          <mxGeometry x="790" y="690" width="60" height="40" as="geometry" />
        </mxCell>
        <mxCell id="aC-6cmxcRIZIMmVNyTmy-106" value="APP-C" style="shape=step;perimeter=stepPerimeter;whiteSpace=wrap;html=1;fixedSize=1;size=10;fillColor=#f5f5f5;strokeColor=#666666;fontColor=#333333;" parent="aC-6cmxcRIZIMmVNyTmy-86" vertex="1">
          <mxGeometry x="870" y="690" width="60" height="40" as="geometry" />
        </mxCell>
        <mxCell id="aC-6cmxcRIZIMmVNyTmy-107" style="edgeStyle=orthogonalEdgeStyle;curved=1;orthogonalLoop=1;jettySize=auto;html=1;entryX=0.5;entryY=0;entryDx=0;entryDy=0;endArrow=classic;dashed=1;strokeColor=#666666;fillColor=#f5f5f5;startArrow=none;exitX=0.5;exitY=1;exitDx=0;exitDy=0;" parent="aC-6cmxcRIZIMmVNyTmy-86" source="aC-6cmxcRIZIMmVNyTmy-38" target="aC-6cmxcRIZIMmVNyTmy-106" edge="1">
          <mxGeometry relative="1" as="geometry">
            <mxPoint x="900" y="530" as="sourcePoint" />
            <mxPoint x="950" y="700" as="targetPoint" />
          </mxGeometry>
        </mxCell>
        <mxCell id="aC-6cmxcRIZIMmVNyTmy-108" value="APP" style="shape=step;perimeter=stepPerimeter;whiteSpace=wrap;html=1;fixedSize=1;size=10;fillColor=#fff2cc;strokeColor=#d6b656;" parent="aC-6cmxcRIZIMmVNyTmy-86" vertex="1">
          <mxGeometry x="960" y="690" width="60" height="40" as="geometry" />
        </mxCell>
        <mxCell id="aC-6cmxcRIZIMmVNyTmy-109" style="edgeStyle=orthogonalEdgeStyle;curved=1;orthogonalLoop=1;jettySize=auto;html=1;entryX=0.5;entryY=0;entryDx=0;entryDy=0;endArrow=classic;dashed=1;strokeColor=#666666;fillColor=#f5f5f5;" parent="aC-6cmxcRIZIMmVNyTmy-86" target="aC-6cmxcRIZIMmVNyTmy-113" edge="1">
          <mxGeometry relative="1" as="geometry">
            <mxPoint x="1100" y="599.9999999999998" as="sourcePoint" />
          </mxGeometry>
        </mxCell>
        <mxCell id="aC-6cmxcRIZIMmVNyTmy-110" style="edgeStyle=orthogonalEdgeStyle;curved=1;orthogonalLoop=1;jettySize=auto;html=1;entryX=0.5;entryY=0;entryDx=0;entryDy=0;endArrow=classic;dashed=1;strokeColor=#666666;fillColor=#f5f5f5;" parent="aC-6cmxcRIZIMmVNyTmy-86" target="aC-6cmxcRIZIMmVNyTmy-114" edge="1">
          <mxGeometry relative="1" as="geometry">
            <mxPoint x="1180" y="599.9999999999998" as="sourcePoint" />
          </mxGeometry>
        </mxCell>
        <mxCell id="aC-6cmxcRIZIMmVNyTmy-111" style="edgeStyle=orthogonalEdgeStyle;curved=1;orthogonalLoop=1;jettySize=auto;html=1;entryX=0.5;entryY=0;entryDx=0;entryDy=0;endArrow=classic;dashed=1;strokeColor=#666666;fillColor=#f5f5f5;" parent="aC-6cmxcRIZIMmVNyTmy-86" target="aC-6cmxcRIZIMmVNyTmy-115" edge="1">
          <mxGeometry relative="1" as="geometry">
            <mxPoint x="1260" y="599.9999999999998" as="sourcePoint" />
          </mxGeometry>
        </mxCell>
        <mxCell id="aC-6cmxcRIZIMmVNyTmy-112" style="edgeStyle=orthogonalEdgeStyle;curved=1;orthogonalLoop=1;jettySize=auto;html=1;entryX=0.5;entryY=0;entryDx=0;entryDy=0;endArrow=classic;dashed=1;strokeColor=#666666;fillColor=#f5f5f5;" parent="aC-6cmxcRIZIMmVNyTmy-86" target="aC-6cmxcRIZIMmVNyTmy-116" edge="1">
          <mxGeometry relative="1" as="geometry">
            <mxPoint x="1420" y="599.9999999999998" as="sourcePoint" />
          </mxGeometry>
        </mxCell>
        <mxCell id="aC-6cmxcRIZIMmVNyTmy-113" value="APP-D" style="shape=step;perimeter=stepPerimeter;whiteSpace=wrap;html=1;fixedSize=1;size=10;fillColor=#f5f5f5;strokeColor=#666666;fontColor=#333333;" parent="aC-6cmxcRIZIMmVNyTmy-86" vertex="1">
          <mxGeometry x="1070" y="690" width="60" height="40" as="geometry" />
        </mxCell>
        <mxCell id="aC-6cmxcRIZIMmVNyTmy-114" value="APP-D" style="shape=step;perimeter=stepPerimeter;whiteSpace=wrap;html=1;fixedSize=1;size=10;fillColor=#f5f5f5;strokeColor=#666666;fontColor=#333333;" parent="aC-6cmxcRIZIMmVNyTmy-86" vertex="1">
          <mxGeometry x="1150" y="690" width="60" height="40" as="geometry" />
        </mxCell>
        <mxCell id="aC-6cmxcRIZIMmVNyTmy-115" value="APP-D" style="shape=step;perimeter=stepPerimeter;whiteSpace=wrap;html=1;fixedSize=1;size=10;fillColor=#f5f5f5;strokeColor=#666666;fontColor=#333333;" parent="aC-6cmxcRIZIMmVNyTmy-86" vertex="1">
          <mxGeometry x="1230" y="690" width="60" height="40" as="geometry" />
        </mxCell>
        <mxCell id="aC-6cmxcRIZIMmVNyTmy-116" value="APP-D" style="shape=step;perimeter=stepPerimeter;whiteSpace=wrap;html=1;fixedSize=1;size=10;fillColor=#f5f5f5;strokeColor=#666666;fontColor=#333333;" parent="aC-6cmxcRIZIMmVNyTmy-86" vertex="1">
          <mxGeometry x="1390" y="690" width="60" height="40" as="geometry" />
        </mxCell>
        <mxCell id="aC-6cmxcRIZIMmVNyTmy-117" value="APP-D" style="shape=step;perimeter=stepPerimeter;whiteSpace=wrap;html=1;fixedSize=1;size=10;fillColor=#f5f5f5;strokeColor=#666666;fontColor=#333333;" parent="aC-6cmxcRIZIMmVNyTmy-86" vertex="1">
          <mxGeometry x="1470" y="690" width="60" height="40" as="geometry" />
        </mxCell>
        <mxCell id="aC-6cmxcRIZIMmVNyTmy-118" style="edgeStyle=orthogonalEdgeStyle;curved=1;orthogonalLoop=1;jettySize=auto;html=1;endArrow=classic;dashed=1;strokeColor=#666666;fillColor=#f5f5f5;exitX=0.5;exitY=1;exitDx=0;exitDy=0;" parent="aC-6cmxcRIZIMmVNyTmy-86" edge="1">
          <mxGeometry relative="1" as="geometry">
            <mxPoint x="1500" y="599.9999999999998" as="sourcePoint" />
            <mxPoint x="1500" y="689.9999999999998" as="targetPoint" />
          </mxGeometry>
        </mxCell>
        <mxCell id="aC-6cmxcRIZIMmVNyTmy-119" style="edgeStyle=orthogonalEdgeStyle;curved=1;orthogonalLoop=1;jettySize=auto;html=1;entryX=0.5;entryY=0;entryDx=0;entryDy=0;dashed=1;fillColor=#fff2cc;strokeColor=#d6b656;exitX=1;exitY=0.5;exitDx=0;exitDy=0;" parent="aC-6cmxcRIZIMmVNyTmy-86" source="aC-6cmxcRIZIMmVNyTmy-74" target="aC-6cmxcRIZIMmVNyTmy-120" edge="1">
          <mxGeometry relative="1" as="geometry">
            <mxPoint x="1580" y="450" as="sourcePoint" />
            <mxPoint x="1580" y="690" as="targetPoint" />
          </mxGeometry>
        </mxCell>
        <mxCell id="aC-6cmxcRIZIMmVNyTmy-120" value="APP" style="shape=step;perimeter=stepPerimeter;whiteSpace=wrap;html=1;fixedSize=1;size=10;fillColor=#fff2cc;strokeColor=#d6b656;" parent="aC-6cmxcRIZIMmVNyTmy-86" vertex="1">
          <mxGeometry x="1560" y="690" width="60" height="40" as="geometry" />
        </mxCell>
        <mxCell id="aC-6cmxcRIZIMmVNyTmy-121" style="edgeStyle=orthogonalEdgeStyle;curved=1;orthogonalLoop=1;jettySize=auto;html=1;entryX=0.5;entryY=0;entryDx=0;entryDy=0;dashed=1;fillColor=#fff2cc;strokeColor=#d6b656;exitX=1;exitY=0.5;exitDx=0;exitDy=0;" parent="aC-6cmxcRIZIMmVNyTmy-86" source="aC-6cmxcRIZIMmVNyTmy-41" edge="1">
          <mxGeometry relative="1" as="geometry">
            <mxPoint x="960" y="470" as="sourcePoint" />
            <mxPoint x="990" y="689.9999999999998" as="targetPoint" />
          </mxGeometry>
        </mxCell>
        <mxCell id="aC-6cmxcRIZIMmVNyTmy-122" value="Pre" style="rounded=1;whiteSpace=wrap;html=1;labelPosition=left;verticalLabelPosition=middle;align=center;verticalAlign=bottom;horizontal=0;" parent="aC-6cmxcRIZIMmVNyTmy-86" vertex="1">
          <mxGeometry x="80" y="160" width="2330" height="70" as="geometry" />
        </mxCell>
        <mxCell id="aC-6cmxcRIZIMmVNyTmy-123" style="edgeStyle=orthogonalEdgeStyle;curved=1;orthogonalLoop=1;jettySize=auto;html=1;dashed=1;fillColor=#ffe6cc;strokeColor=#d79b00;exitX=0.5;exitY=0;exitDx=0;exitDy=0;" parent="aC-6cmxcRIZIMmVNyTmy-86" source="aC-6cmxcRIZIMmVNyTmy-16" target="aC-6cmxcRIZIMmVNyTmy-125" edge="1">
          <mxGeometry relative="1" as="geometry">
            <mxPoint x="460" y="360" as="sourcePoint" />
          </mxGeometry>
        </mxCell>
        <mxCell id="aC-6cmxcRIZIMmVNyTmy-124" style="edgeStyle=orthogonalEdgeStyle;curved=1;orthogonalLoop=1;jettySize=auto;html=1;fillColor=#ffe6cc;strokeColor=#d79b00;dashed=1;exitX=0.5;exitY=0;exitDx=0;exitDy=0;" parent="aC-6cmxcRIZIMmVNyTmy-86" source="aC-6cmxcRIZIMmVNyTmy-22" target="aC-6cmxcRIZIMmVNyTmy-127" edge="1">
          <mxGeometry relative="1" as="geometry">
            <mxPoint x="700" y="360" as="sourcePoint" />
          </mxGeometry>
        </mxCell>
        <mxCell id="aC-6cmxcRIZIMmVNyTmy-125" value="APP" style="shape=step;perimeter=stepPerimeter;whiteSpace=wrap;html=1;fixedSize=1;size=10;fillColor=#ffe6cc;strokeColor=#d79b00;" parent="aC-6cmxcRIZIMmVNyTmy-86" vertex="1">
          <mxGeometry x="430" y="170" width="60" height="40" as="geometry" />
        </mxCell>
        <mxCell id="aC-6cmxcRIZIMmVNyTmy-126" value="Pro" style="rounded=1;whiteSpace=wrap;html=1;horizontal=0;labelPosition=left;verticalLabelPosition=middle;align=center;verticalAlign=bottom;" parent="aC-6cmxcRIZIMmVNyTmy-86" vertex="1">
          <mxGeometry x="80" y="50" width="2330" height="70" as="geometry" />
        </mxCell>
        <mxCell id="aC-6cmxcRIZIMmVNyTmy-127" value="APP" style="shape=step;perimeter=stepPerimeter;whiteSpace=wrap;html=1;fixedSize=1;size=10;fillColor=#ffe6cc;strokeColor=#d79b00;" parent="aC-6cmxcRIZIMmVNyTmy-86" vertex="1">
          <mxGeometry x="670" y="170" width="60" height="40" as="geometry" />
        </mxCell>
        <mxCell id="aC-6cmxcRIZIMmVNyTmy-128" value="APP" style="shape=step;perimeter=stepPerimeter;whiteSpace=wrap;html=1;fixedSize=1;size=10;fillColor=#ffe6cc;strokeColor=#d79b00;" parent="aC-6cmxcRIZIMmVNyTmy-86" vertex="1">
          <mxGeometry x="950" y="175" width="60" height="40" as="geometry" />
        </mxCell>
        <mxCell id="aC-6cmxcRIZIMmVNyTmy-129" style="edgeStyle=orthogonalEdgeStyle;curved=1;orthogonalLoop=1;jettySize=auto;html=1;fillColor=#ffe6cc;strokeColor=#d79b00;dashed=1;entryX=0.5;entryY=1;entryDx=0;entryDy=0;exitX=0.5;exitY=0;exitDx=0;exitDy=0;" parent="aC-6cmxcRIZIMmVNyTmy-86" source="aC-6cmxcRIZIMmVNyTmy-45" target="aC-6cmxcRIZIMmVNyTmy-128" edge="1">
          <mxGeometry relative="1" as="geometry">
            <mxPoint x="990" y="350" as="sourcePoint" />
            <mxPoint x="980" y="280" as="targetPoint" />
          </mxGeometry>
        </mxCell>
        <mxCell id="aC-6cmxcRIZIMmVNyTmy-131" value="APP" style="shape=step;perimeter=stepPerimeter;whiteSpace=wrap;html=1;fixedSize=1;size=10;fillColor=#ffe6cc;strokeColor=#d79b00;" parent="aC-6cmxcRIZIMmVNyTmy-86" vertex="1">
          <mxGeometry x="1190" y="175" width="60" height="40" as="geometry" />
        </mxCell>
        <mxCell id="aC-6cmxcRIZIMmVNyTmy-132" style="edgeStyle=orthogonalEdgeStyle;curved=1;orthogonalLoop=1;jettySize=auto;html=1;fillColor=#ffe6cc;strokeColor=#d79b00;dashed=1;entryX=0.5;entryY=1;entryDx=0;entryDy=0;exitX=0.5;exitY=0;exitDx=0;exitDy=0;" parent="aC-6cmxcRIZIMmVNyTmy-86" source="aC-6cmxcRIZIMmVNyTmy-51" target="aC-6cmxcRIZIMmVNyTmy-131" edge="1">
          <mxGeometry relative="1" as="geometry">
            <mxPoint x="1230" y="350" as="sourcePoint" />
            <mxPoint x="1030" y="225" as="targetPoint" />
          </mxGeometry>
        </mxCell>
        <mxCell id="aC-6cmxcRIZIMmVNyTmy-133" value="" style="edgeStyle=orthogonalEdgeStyle;curved=1;orthogonalLoop=1;jettySize=auto;html=1;fillColor=#f8cecc;strokeColor=#b85450;entryX=0.5;entryY=1;entryDx=0;entryDy=0;exitX=1;exitY=0.5;exitDx=0;exitDy=0;" parent="aC-6cmxcRIZIMmVNyTmy-86" source="aC-6cmxcRIZIMmVNyTmy-22" edge="1">
          <mxGeometry relative="1" as="geometry">
            <mxPoint x="720" y="380" as="sourcePoint" />
            <mxPoint x="780" y="320" as="targetPoint" />
          </mxGeometry>
        </mxCell>
        <mxCell id="aC-6cmxcRIZIMmVNyTmy-134" style="edgeStyle=orthogonalEdgeStyle;curved=1;orthogonalLoop=1;jettySize=auto;html=1;entryX=0.5;entryY=1;entryDx=0;entryDy=0;dashed=1;exitX=1;exitY=0.5;exitDx=0;exitDy=0;fillColor=#f8cecc;strokeColor=#b85450;" parent="aC-6cmxcRIZIMmVNyTmy-86" source="aC-6cmxcRIZIMmVNyTmy-144" target="aC-6cmxcRIZIMmVNyTmy-135" edge="1">
          <mxGeometry relative="1" as="geometry">
            <mxPoint x="800" y="300" as="sourcePoint" />
          </mxGeometry>
        </mxCell>
        <mxCell id="aC-6cmxcRIZIMmVNyTmy-135" value="APP" style="shape=step;perimeter=stepPerimeter;whiteSpace=wrap;html=1;fixedSize=1;size=10;fillColor=#f8cecc;strokeColor=#b85450;" parent="aC-6cmxcRIZIMmVNyTmy-86" vertex="1">
          <mxGeometry x="800" y="65" width="60" height="40" as="geometry" />
        </mxCell>
        <mxCell id="aC-6cmxcRIZIMmVNyTmy-136" style="edgeStyle=orthogonalEdgeStyle;curved=1;orthogonalLoop=1;jettySize=auto;html=1;entryX=0.5;entryY=1;entryDx=0;entryDy=0;dashed=1;exitX=1;exitY=0.5;exitDx=0;exitDy=0;fillColor=#f8cecc;strokeColor=#b85450;" parent="aC-6cmxcRIZIMmVNyTmy-86" source="aC-6cmxcRIZIMmVNyTmy-137" target="aC-6cmxcRIZIMmVNyTmy-138" edge="1">
          <mxGeometry relative="1" as="geometry" />
        </mxCell>
        <mxCell id="aC-6cmxcRIZIMmVNyTmy-137" value="RL" style="rhombus;whiteSpace=wrap;html=1;fillColor=#f8cecc;strokeColor=#b85450;" parent="aC-6cmxcRIZIMmVNyTmy-86" vertex="1">
          <mxGeometry x="1280" y="280" width="40" height="40" as="geometry" />
        </mxCell>
        <mxCell id="aC-6cmxcRIZIMmVNyTmy-138" value="APP" style="shape=step;perimeter=stepPerimeter;whiteSpace=wrap;html=1;fixedSize=1;size=10;fillColor=#f8cecc;strokeColor=#b85450;" parent="aC-6cmxcRIZIMmVNyTmy-86" vertex="1">
          <mxGeometry x="1320" y="65" width="60" height="40" as="geometry" />
        </mxCell>
        <mxCell id="aC-6cmxcRIZIMmVNyTmy-140" value="" style="edgeStyle=orthogonalEdgeStyle;curved=1;orthogonalLoop=1;jettySize=auto;html=1;fillColor=#f8cecc;strokeColor=#b85450;entryX=0.5;entryY=1;entryDx=0;entryDy=0;exitX=1;exitY=0.5;exitDx=0;exitDy=0;" parent="aC-6cmxcRIZIMmVNyTmy-86" source="aC-6cmxcRIZIMmVNyTmy-69" target="aC-6cmxcRIZIMmVNyTmy-141" edge="1">
          <mxGeometry relative="1" as="geometry">
            <mxPoint x="1440" y="380" as="sourcePoint" />
            <mxPoint x="1480" y="380" as="targetPoint" />
          </mxGeometry>
        </mxCell>
        <mxCell id="aC-6cmxcRIZIMmVNyTmy-141" value="RL" style="rhombus;whiteSpace=wrap;html=1;fillColor=#f8cecc;strokeColor=#b85450;" parent="aC-6cmxcRIZIMmVNyTmy-86" vertex="1">
          <mxGeometry x="1520" y="280" width="40" height="40" as="geometry" />
        </mxCell>
        <mxCell id="aC-6cmxcRIZIMmVNyTmy-142" style="edgeStyle=orthogonalEdgeStyle;curved=1;orthogonalLoop=1;jettySize=auto;html=1;entryX=0.5;entryY=1;entryDx=0;entryDy=0;dashed=1;exitX=1;exitY=0.5;exitDx=0;exitDy=0;fillColor=#f8cecc;strokeColor=#b85450;" parent="aC-6cmxcRIZIMmVNyTmy-86" source="aC-6cmxcRIZIMmVNyTmy-141" target="aC-6cmxcRIZIMmVNyTmy-143" edge="1">
          <mxGeometry relative="1" as="geometry" />
        </mxCell>
        <mxCell id="aC-6cmxcRIZIMmVNyTmy-143" value="APP" style="shape=step;perimeter=stepPerimeter;whiteSpace=wrap;html=1;fixedSize=1;size=10;fillColor=#f8cecc;strokeColor=#b85450;" parent="aC-6cmxcRIZIMmVNyTmy-86" vertex="1">
          <mxGeometry x="1550" y="65" width="60" height="40" as="geometry" />
        </mxCell>
        <mxCell id="aC-6cmxcRIZIMmVNyTmy-144" value="RL" style="rhombus;whiteSpace=wrap;html=1;fillColor=#f8cecc;strokeColor=#b85450;" parent="aC-6cmxcRIZIMmVNyTmy-86" vertex="1">
          <mxGeometry x="760" y="280" width="40" height="40" as="geometry" />
        </mxCell>
        <mxCell id="aC-6cmxcRIZIMmVNyTmy-145" value="" style="edgeStyle=orthogonalEdgeStyle;curved=1;orthogonalLoop=1;jettySize=auto;html=1;fillColor=#f8cecc;strokeColor=#b85450;entryX=0.5;entryY=1;entryDx=0;entryDy=0;exitX=1;exitY=0.5;exitDx=0;exitDy=0;" parent="aC-6cmxcRIZIMmVNyTmy-86" source="aC-6cmxcRIZIMmVNyTmy-51" edge="1">
          <mxGeometry relative="1" as="geometry">
            <mxPoint x="1240" y="380" as="sourcePoint" />
            <mxPoint x="1300" y="320" as="targetPoint" />
          </mxGeometry>
        </mxCell>
        <mxCell id="aC-6cmxcRIZIMmVNyTmy-146" style="edgeStyle=orthogonalEdgeStyle;curved=1;orthogonalLoop=1;jettySize=auto;html=1;entryX=0.5;entryY=0;entryDx=0;entryDy=0;dashed=1;fillColor=#fff2cc;strokeColor=#d6b656;exitX=1;exitY=0.5;exitDx=0;exitDy=0;" parent="aC-6cmxcRIZIMmVNyTmy-86" source="aC-6cmxcRIZIMmVNyTmy-78" target="aC-6cmxcRIZIMmVNyTmy-147" edge="1">
          <mxGeometry relative="1" as="geometry">
            <mxPoint x="1570" y="450" as="sourcePoint" />
            <mxPoint x="1600" y="700" as="targetPoint" />
          </mxGeometry>
        </mxCell>
        <mxCell id="aC-6cmxcRIZIMmVNyTmy-147" value="APP" style="shape=step;perimeter=stepPerimeter;whiteSpace=wrap;html=1;fixedSize=1;size=10;fillColor=#fff2cc;strokeColor=#d6b656;" parent="aC-6cmxcRIZIMmVNyTmy-86" vertex="1">
          <mxGeometry x="1720" y="690" width="60" height="40" as="geometry" />
        </mxCell>
        <mxCell id="aC-6cmxcRIZIMmVNyTmy-148" value="APP" style="shape=step;perimeter=stepPerimeter;whiteSpace=wrap;html=1;fixedSize=1;size=10;fillColor=#fff2cc;strokeColor=#d6b656;" parent="aC-6cmxcRIZIMmVNyTmy-86" vertex="1">
          <mxGeometry x="1880" y="690" width="60" height="40" as="geometry" />
        </mxCell>
        <mxCell id="aC-6cmxcRIZIMmVNyTmy-149" value="APP-D" style="shape=step;perimeter=stepPerimeter;whiteSpace=wrap;html=1;fixedSize=1;size=10;fillColor=#f5f5f5;strokeColor=#666666;fontColor=#333333;" parent="aC-6cmxcRIZIMmVNyTmy-86" vertex="1">
          <mxGeometry x="1630" y="690" width="60" height="40" as="geometry" />
        </mxCell>
        <mxCell id="aC-6cmxcRIZIMmVNyTmy-150" style="edgeStyle=orthogonalEdgeStyle;curved=1;orthogonalLoop=1;jettySize=auto;html=1;entryX=0.484;entryY=-0.074;entryDx=0;entryDy=0;entryPerimeter=0;dashed=1;fontSize=11;endArrow=classic;strokeColor=#666666;fillColor=#f5f5f5;" parent="aC-6cmxcRIZIMmVNyTmy-86" source="aC-6cmxcRIZIMmVNyTmy-76" target="aC-6cmxcRIZIMmVNyTmy-149" edge="1">
          <mxGeometry relative="1" as="geometry" />
        </mxCell>
        <mxCell id="aC-6cmxcRIZIMmVNyTmy-151" value="APP-D" style="shape=step;perimeter=stepPerimeter;whiteSpace=wrap;html=1;fixedSize=1;size=10;fillColor=#f5f5f5;strokeColor=#666666;fontColor=#333333;" parent="aC-6cmxcRIZIMmVNyTmy-86" vertex="1">
          <mxGeometry x="1790" y="690" width="60" height="40" as="geometry" />
        </mxCell>
        <mxCell id="aC-6cmxcRIZIMmVNyTmy-152" style="edgeStyle=orthogonalEdgeStyle;curved=1;orthogonalLoop=1;jettySize=auto;html=1;entryX=0.5;entryY=0;entryDx=0;entryDy=0;dashed=1;fontSize=11;endArrow=classic;strokeColor=#666666;fillColor=#f5f5f5;" parent="aC-6cmxcRIZIMmVNyTmy-86" source="aC-6cmxcRIZIMmVNyTmy-77" target="aC-6cmxcRIZIMmVNyTmy-151" edge="1">
          <mxGeometry relative="1" as="geometry" />
        </mxCell>
        <mxCell id="aC-6cmxcRIZIMmVNyTmy-153" style="edgeStyle=orthogonalEdgeStyle;curved=1;orthogonalLoop=1;jettySize=auto;html=1;entryX=0.5;entryY=0;entryDx=0;entryDy=0;dashed=1;fillColor=#fff2cc;strokeColor=#d6b656;exitX=1;exitY=0.5;exitDx=0;exitDy=0;" parent="aC-6cmxcRIZIMmVNyTmy-86" source="CyZ546wctjjTr-zOGgrK-36" target="aC-6cmxcRIZIMmVNyTmy-148" edge="1">
          <mxGeometry relative="1" as="geometry">
            <mxPoint x="1870" y="440" as="sourcePoint" />
            <mxPoint x="1760" y="700" as="targetPoint" />
          </mxGeometry>
        </mxCell>
        <mxCell id="aC-6cmxcRIZIMmVNyTmy-154" value="APP" style="shape=step;perimeter=stepPerimeter;whiteSpace=wrap;html=1;fixedSize=1;size=10;fillColor=#ffe6cc;strokeColor=#d79b00;" parent="aC-6cmxcRIZIMmVNyTmy-86" vertex="1">
          <mxGeometry x="1870" y="175" width="60" height="40" as="geometry" />
        </mxCell>
        <mxCell id="aC-6cmxcRIZIMmVNyTmy-155" style="edgeStyle=orthogonalEdgeStyle;curved=1;orthogonalLoop=1;jettySize=auto;html=1;fillColor=#ffe6cc;strokeColor=#d79b00;dashed=1;entryX=0.5;entryY=1;entryDx=0;entryDy=0;" parent="aC-6cmxcRIZIMmVNyTmy-86" target="aC-6cmxcRIZIMmVNyTmy-154" edge="1">
          <mxGeometry relative="1" as="geometry">
            <mxPoint x="1900" y="360" as="sourcePoint" />
            <mxPoint x="1710" y="225" as="targetPoint" />
          </mxGeometry>
        </mxCell>
        <mxCell id="CyZ546wctjjTr-zOGgrK-3" value="APP" style="shape=step;perimeter=stepPerimeter;whiteSpace=wrap;html=1;fixedSize=1;size=10;fillColor=#b0e3e6;strokeColor=#0e8088;" parent="aC-6cmxcRIZIMmVNyTmy-86" vertex="1">
          <mxGeometry x="1410" y="65" width="60" height="40" as="geometry" />
        </mxCell>
        <mxCell id="CyZ546wctjjTr-zOGgrK-5" style="edgeStyle=orthogonalEdgeStyle;orthogonalLoop=1;jettySize=auto;html=1;dashed=1;strokeColor=#10739e;fillColor=#b1ddf0;curved=1;entryX=0.5;entryY=1;entryDx=0;entryDy=0;" parent="aC-6cmxcRIZIMmVNyTmy-86" target="CyZ546wctjjTr-zOGgrK-3" edge="1">
          <mxGeometry relative="1" as="geometry">
            <mxPoint x="1400" y="440" as="sourcePoint" />
            <mxPoint x="1180" y="100" as="targetPoint" />
          </mxGeometry>
        </mxCell>
        <mxCell id="CyZ546wctjjTr-zOGgrK-16" value="APP" style="shape=step;perimeter=stepPerimeter;whiteSpace=wrap;html=1;fixedSize=1;size=10;fillColor=#b0e3e6;strokeColor=#0e8088;" parent="aC-6cmxcRIZIMmVNyTmy-86" vertex="1">
          <mxGeometry x="2080" y="65" width="60" height="40" as="geometry" />
        </mxCell>
        <mxCell id="CyZ546wctjjTr-zOGgrK-17" style="edgeStyle=orthogonalEdgeStyle;orthogonalLoop=1;jettySize=auto;html=1;dashed=1;strokeColor=#10739e;fillColor=#b1ddf0;curved=1;entryX=0.5;entryY=1;entryDx=0;entryDy=0;exitX=1;exitY=0.5;exitDx=0;exitDy=0;" parent="aC-6cmxcRIZIMmVNyTmy-86" source="CyZ546wctjjTr-zOGgrK-39" target="CyZ546wctjjTr-zOGgrK-16" edge="1">
          <mxGeometry relative="1" as="geometry">
            <mxPoint x="2070" y="440" as="sourcePoint" />
            <mxPoint x="1470" y="115" as="targetPoint" />
          </mxGeometry>
        </mxCell>
        <mxCell id="CyZ546wctjjTr-zOGgrK-26" value="APP" style="shape=step;perimeter=stepPerimeter;whiteSpace=wrap;html=1;fixedSize=1;size=10;fillColor=#b0e3e6;strokeColor=#0e8088;" parent="aC-6cmxcRIZIMmVNyTmy-86" vertex="1">
          <mxGeometry x="2210" y="65" width="60" height="40" as="geometry" />
        </mxCell>
        <mxCell id="CyZ546wctjjTr-zOGgrK-27" style="edgeStyle=orthogonalEdgeStyle;orthogonalLoop=1;jettySize=auto;html=1;dashed=1;strokeColor=#10739e;fillColor=#b1ddf0;curved=1;entryX=0.5;entryY=1;entryDx=0;entryDy=0;exitX=1;exitY=0.5;exitDx=0;exitDy=0;" parent="aC-6cmxcRIZIMmVNyTmy-86" source="CyZ546wctjjTr-zOGgrK-42" target="CyZ546wctjjTr-zOGgrK-26" edge="1">
          <mxGeometry relative="1" as="geometry">
            <mxPoint x="2200" y="440" as="sourcePoint" />
            <mxPoint x="2120" y="115" as="targetPoint" />
          </mxGeometry>
        </mxCell>
        <mxCell id="CyZ546wctjjTr-zOGgrK-28" value="APP" style="shape=step;perimeter=stepPerimeter;whiteSpace=wrap;html=1;fixedSize=1;size=10;fillColor=#b0e3e6;strokeColor=#0e8088;" parent="aC-6cmxcRIZIMmVNyTmy-86" vertex="1">
          <mxGeometry x="2320" y="65" width="60" height="40" as="geometry" />
        </mxCell>
        <mxCell id="CyZ546wctjjTr-zOGgrK-29" style="edgeStyle=orthogonalEdgeStyle;orthogonalLoop=1;jettySize=auto;html=1;dashed=1;strokeColor=#10739e;fillColor=#b1ddf0;curved=1;entryX=0.5;entryY=1;entryDx=0;entryDy=0;exitX=1;exitY=0.5;exitDx=0;exitDy=0;" parent="aC-6cmxcRIZIMmVNyTmy-86" source="CyZ546wctjjTr-zOGgrK-43" target="CyZ546wctjjTr-zOGgrK-28" edge="1">
          <mxGeometry relative="1" as="geometry">
            <mxPoint x="2310" y="440" as="sourcePoint" />
            <mxPoint x="2250" y="115" as="targetPoint" />
          </mxGeometry>
        </mxCell>
        <mxCell id="aC-6cmxcRIZIMmVNyTmy-156" value="Versiones y tags" parent="0" />
        <mxCell id="aC-6cmxcRIZIMmVNyTmy-157" value="1.0.0-SNAP" style="rounded=0;whiteSpace=wrap;html=1;strokeWidth=1;fontSize=10;" parent="aC-6cmxcRIZIMmVNyTmy-156" vertex="1">
          <mxGeometry x="110" y="440" width="60" height="20" as="geometry" />
        </mxCell>
        <mxCell id="aC-6cmxcRIZIMmVNyTmy-158" value="1.0.0-SNAP" style="rounded=0;whiteSpace=wrap;html=1;strokeWidth=1;fontSize=10;" parent="aC-6cmxcRIZIMmVNyTmy-156" vertex="1">
          <mxGeometry x="270" y="440" width="60" height="20" as="geometry" />
        </mxCell>
        <mxCell id="aC-6cmxcRIZIMmVNyTmy-159" value="1.0.0-SNAP" style="rounded=0;whiteSpace=wrap;html=1;strokeWidth=1;fontSize=10;" parent="aC-6cmxcRIZIMmVNyTmy-156" vertex="1">
          <mxGeometry x="350" y="440" width="60" height="20" as="geometry" />
        </mxCell>
        <mxCell id="aC-6cmxcRIZIMmVNyTmy-160" value="1.0.0-SNAP" style="rounded=0;whiteSpace=wrap;html=1;strokeWidth=1;fontSize=10;" parent="aC-6cmxcRIZIMmVNyTmy-156" vertex="1">
          <mxGeometry x="190" y="530" width="60" height="20" as="geometry" />
        </mxCell>
        <mxCell id="aC-6cmxcRIZIMmVNyTmy-161" value="1.0.0-SNAP" style="rounded=0;whiteSpace=wrap;html=1;strokeWidth=1;fontSize=10;" parent="aC-6cmxcRIZIMmVNyTmy-156" vertex="1">
          <mxGeometry x="510" y="530" width="60" height="20" as="geometry" />
        </mxCell>
        <mxCell id="aC-6cmxcRIZIMmVNyTmy-162" value="1.0.0-SNAP" style="rounded=0;whiteSpace=wrap;html=1;strokeWidth=1;fontSize=10;" parent="aC-6cmxcRIZIMmVNyTmy-156" vertex="1">
          <mxGeometry x="590" y="530" width="60" height="20" as="geometry" />
        </mxCell>
        <mxCell id="aC-6cmxcRIZIMmVNyTmy-163" value="1.0.0" style="rounded=0;whiteSpace=wrap;html=1;strokeWidth=1;fontSize=10;" parent="aC-6cmxcRIZIMmVNyTmy-156" vertex="1">
          <mxGeometry x="380" y="330" width="60" height="20" as="geometry" />
        </mxCell>
        <mxCell id="aC-6cmxcRIZIMmVNyTmy-164" value="1.0.0" style="rounded=0;whiteSpace=wrap;html=1;strokeWidth=1;fontSize=10;" parent="aC-6cmxcRIZIMmVNyTmy-156" vertex="1">
          <mxGeometry x="620" y="330" width="60" height="20" as="geometry" />
        </mxCell>
        <mxCell id="aC-6cmxcRIZIMmVNyTmy-165" value="1.0.0-RC-1" style="rounded=0;whiteSpace=wrap;html=1;strokeWidth=1;fontSize=10;fillColor=#ffff88;strokeColor=#36393d;" parent="aC-6cmxcRIZIMmVNyTmy-156" vertex="1">
          <mxGeometry x="380" y="310" width="60" height="20" as="geometry" />
        </mxCell>
        <mxCell id="aC-6cmxcRIZIMmVNyTmy-166" value="1.0.0-RC-2" style="rounded=0;whiteSpace=wrap;html=1;strokeWidth=1;fontSize=10;fillColor=#ffff88;strokeColor=#36393d;" parent="aC-6cmxcRIZIMmVNyTmy-156" vertex="1">
          <mxGeometry x="620" y="310" width="60" height="20" as="geometry" />
        </mxCell>
        <mxCell id="aC-6cmxcRIZIMmVNyTmy-167" value="1.0.0" style="rounded=0;whiteSpace=wrap;html=1;strokeWidth=1;fontSize=10;fillColor=#ffff88;strokeColor=#36393d;" parent="aC-6cmxcRIZIMmVNyTmy-156" vertex="1">
          <mxGeometry x="620" y="290" width="60" height="20" as="geometry" />
        </mxCell>
        <mxCell id="aC-6cmxcRIZIMmVNyTmy-168" value="1.1.0-SNAP" style="rounded=0;whiteSpace=wrap;html=1;strokeWidth=1;fontSize=10;" parent="aC-6cmxcRIZIMmVNyTmy-156" vertex="1">
          <mxGeometry x="790" y="450" width="60" height="20" as="geometry" />
        </mxCell>
        <mxCell id="aC-6cmxcRIZIMmVNyTmy-169" value="1.1.0-SNAP" style="rounded=0;whiteSpace=wrap;html=1;strokeWidth=1;fontSize=10;" parent="aC-6cmxcRIZIMmVNyTmy-156" vertex="1">
          <mxGeometry x="870" y="450" width="60" height="20" as="geometry" />
        </mxCell>
        <mxCell id="aC-6cmxcRIZIMmVNyTmy-170" value="1.1.0" style="rounded=0;whiteSpace=wrap;html=1;strokeWidth=1;fontSize=10;" parent="aC-6cmxcRIZIMmVNyTmy-156" vertex="1">
          <mxGeometry x="910" y="330" width="60" height="20" as="geometry" />
        </mxCell>
        <mxCell id="aC-6cmxcRIZIMmVNyTmy-171" value="1.1.0-RC-1" style="rounded=0;whiteSpace=wrap;html=1;strokeWidth=1;fontSize=10;fillColor=#ffff88;strokeColor=#36393d;" parent="aC-6cmxcRIZIMmVNyTmy-156" vertex="1">
          <mxGeometry x="910" y="310" width="60" height="20" as="geometry" />
        </mxCell>
        <mxCell id="aC-6cmxcRIZIMmVNyTmy-172" value="1.1.0-F" style="rounded=0;whiteSpace=wrap;html=1;strokeWidth=1;fontSize=10;" parent="aC-6cmxcRIZIMmVNyTmy-156" vertex="1">
          <mxGeometry x="1070" y="450" width="60" height="20" as="geometry" />
        </mxCell>
        <mxCell id="aC-6cmxcRIZIMmVNyTmy-174" value="1.1.0" style="rounded=0;whiteSpace=wrap;html=1;strokeWidth=1;fontSize=10;" parent="aC-6cmxcRIZIMmVNyTmy-156" vertex="1">
          <mxGeometry x="1150" y="330" width="60" height="20" as="geometry" />
        </mxCell>
        <mxCell id="aC-6cmxcRIZIMmVNyTmy-175" value="1.1.0-RC-2" style="rounded=0;whiteSpace=wrap;html=1;strokeWidth=1;fontSize=10;fillColor=#ffff88;strokeColor=#36393d;" parent="aC-6cmxcRIZIMmVNyTmy-156" vertex="1">
          <mxGeometry x="1150" y="310" width="60" height="20" as="geometry" />
        </mxCell>
        <mxCell id="aC-6cmxcRIZIMmVNyTmy-176" value="1.2.0-SNAP" style="rounded=0;whiteSpace=wrap;html=1;strokeWidth=1;fontSize=10;" parent="aC-6cmxcRIZIMmVNyTmy-156" vertex="1">
          <mxGeometry x="1070" y="530" width="60" height="20" as="geometry" />
        </mxCell>
        <mxCell id="aC-6cmxcRIZIMmVNyTmy-177" value="1.2.0-SNAP" style="rounded=0;whiteSpace=wrap;html=1;strokeWidth=1;fontSize=10;" parent="aC-6cmxcRIZIMmVNyTmy-156" vertex="1">
          <mxGeometry x="1150" y="530" width="60" height="20" as="geometry" />
        </mxCell>
        <mxCell id="aC-6cmxcRIZIMmVNyTmy-178" value="1.2.0-SNAP" style="rounded=0;whiteSpace=wrap;html=1;strokeWidth=1;fontSize=10;" parent="aC-6cmxcRIZIMmVNyTmy-156" vertex="1">
          <mxGeometry x="1230" y="530" width="60" height="20" as="geometry" />
        </mxCell>
        <mxCell id="aC-6cmxcRIZIMmVNyTmy-179" value="1.2.0-SNAP" style="rounded=0;whiteSpace=wrap;html=1;strokeWidth=1;fontSize=10;" parent="aC-6cmxcRIZIMmVNyTmy-156" vertex="1">
          <mxGeometry x="1390" y="530" width="60" height="20" as="geometry" />
        </mxCell>
        <mxCell id="aC-6cmxcRIZIMmVNyTmy-180" value="1.2.0-SNAP" style="rounded=0;whiteSpace=wrap;html=1;strokeWidth=1;fontSize=10;" parent="aC-6cmxcRIZIMmVNyTmy-156" vertex="1">
          <mxGeometry x="1470" y="530" width="60" height="20" as="geometry" />
        </mxCell>
        <mxCell id="aC-6cmxcRIZIMmVNyTmy-181" value="1.1.0" style="rounded=0;whiteSpace=wrap;html=1;strokeWidth=1;fontSize=10;fillColor=#ffff88;strokeColor=#36393d;" parent="aC-6cmxcRIZIMmVNyTmy-156" vertex="1">
          <mxGeometry x="1150" y="290" width="60" height="20" as="geometry" />
        </mxCell>
        <mxCell id="aC-6cmxcRIZIMmVNyTmy-182" value="1.1.1" style="rounded=0;whiteSpace=wrap;html=1;strokeWidth=1;fontSize=10;" parent="aC-6cmxcRIZIMmVNyTmy-156" vertex="1">
          <mxGeometry x="1350" y="330" width="60" height="20" as="geometry" />
        </mxCell>
        <mxCell id="aC-6cmxcRIZIMmVNyTmy-183" value="1.1.1-HF-1" style="rounded=0;whiteSpace=wrap;html=1;strokeWidth=1;fontSize=10;fillColor=#ffff88;strokeColor=#36393d;" parent="aC-6cmxcRIZIMmVNyTmy-156" vertex="1">
          <mxGeometry x="1310" y="430" width="60" height="20" as="geometry" />
        </mxCell>
        <mxCell id="aC-6cmxcRIZIMmVNyTmy-184" value="1.1.1-HF" style="rounded=0;whiteSpace=wrap;html=1;strokeWidth=1;fontSize=10;" parent="aC-6cmxcRIZIMmVNyTmy-156" vertex="1">
          <mxGeometry x="1310" y="450" width="60" height="20" as="geometry" />
        </mxCell>
        <mxCell id="aC-6cmxcRIZIMmVNyTmy-185" value="1.1.1" style="rounded=0;whiteSpace=wrap;html=1;strokeWidth=1;fontSize=10;fillColor=#ffff88;strokeColor=#36393d;" parent="aC-6cmxcRIZIMmVNyTmy-156" vertex="1">
          <mxGeometry x="1350" y="310" width="60" height="20" as="geometry" />
        </mxCell>
        <mxCell id="aC-6cmxcRIZIMmVNyTmy-186" value="1.2.0-SNAP" style="rounded=0;whiteSpace=wrap;html=1;strokeWidth=1;fontSize=10;" parent="aC-6cmxcRIZIMmVNyTmy-156" vertex="1">
          <mxGeometry x="1630" y="530" width="60" height="20" as="geometry" />
        </mxCell>
        <mxCell id="aC-6cmxcRIZIMmVNyTmy-187" value="1.2.0" style="rounded=0;whiteSpace=wrap;html=1;strokeWidth=1;fontSize=10;" parent="aC-6cmxcRIZIMmVNyTmy-156" vertex="1">
          <mxGeometry x="1830" y="330" width="60" height="20" as="geometry" />
        </mxCell>
        <mxCell id="aC-6cmxcRIZIMmVNyTmy-188" value="1.2.0-RC-1" style="rounded=0;whiteSpace=wrap;html=1;strokeWidth=1;fontSize=10;fillColor=#ffff88;strokeColor=#36393d;" parent="aC-6cmxcRIZIMmVNyTmy-156" vertex="1">
          <mxGeometry x="1830" y="310" width="60" height="20" as="geometry" />
        </mxCell>
        <mxCell id="aC-6cmxcRIZIMmVNyTmy-189" value="1.2.0-SNAP" style="rounded=0;whiteSpace=wrap;html=1;strokeWidth=1;fontSize=10;" parent="aC-6cmxcRIZIMmVNyTmy-156" vertex="1">
          <mxGeometry x="1790" y="530" width="60" height="20" as="geometry" />
        </mxCell>
        <mxCell id="mba0xVm1XPH_P8dEujyp-12" value="1.1.2-HF" style="rounded=0;whiteSpace=wrap;html=1;strokeWidth=1;fontSize=10;" parent="aC-6cmxcRIZIMmVNyTmy-156" vertex="1">
          <mxGeometry x="1990" y="450" width="60" height="20" as="geometry" />
        </mxCell>
        <mxCell id="aC-6cmxcRIZIMmVNyTmy-264" value="1.1.3-HF" style="rounded=0;whiteSpace=wrap;html=1;strokeWidth=1;fontSize=10;" parent="aC-6cmxcRIZIMmVNyTmy-156" vertex="1">
          <mxGeometry x="2110" y="450" width="60" height="20" as="geometry" />
        </mxCell>
        <mxCell id="aC-6cmxcRIZIMmVNyTmy-265" value="1.1.4-HF" style="rounded=0;whiteSpace=wrap;html=1;strokeWidth=1;fontSize=10;" parent="aC-6cmxcRIZIMmVNyTmy-156" vertex="1">
          <mxGeometry x="2230" y="450" width="60" height="20" as="geometry" />
        </mxCell>
        <mxCell id="aC-6cmxcRIZIMmVNyTmy-270" value="1.1.1-HF-1" style="rounded=0;whiteSpace=wrap;html=1;strokeWidth=1;fontSize=10;fillColor=#ffff88;strokeColor=#36393d;" parent="aC-6cmxcRIZIMmVNyTmy-156" vertex="1">
          <mxGeometry x="1990" y="430" width="60" height="20" as="geometry" />
        </mxCell>
        <mxCell id="aC-6cmxcRIZIMmVNyTmy-271" value="1.1.1-HF-2" style="rounded=0;whiteSpace=wrap;html=1;strokeWidth=1;fontSize=10;fillColor=#ffff88;strokeColor=#36393d;" parent="aC-6cmxcRIZIMmVNyTmy-156" vertex="1">
          <mxGeometry x="2110" y="430" width="60" height="20" as="geometry" />
        </mxCell>
        <mxCell id="aC-6cmxcRIZIMmVNyTmy-272" value="1.1.1-HF-3" style="rounded=0;whiteSpace=wrap;html=1;strokeWidth=1;fontSize=10;fillColor=#ffff88;strokeColor=#36393d;" parent="aC-6cmxcRIZIMmVNyTmy-156" vertex="1">
          <mxGeometry x="2230" y="430" width="60" height="20" as="geometry" />
        </mxCell>
        <mxCell id="aC-6cmxcRIZIMmVNyTmy-273" value="1.2.0" style="rounded=0;whiteSpace=wrap;html=1;strokeWidth=1;fontSize=10;" parent="aC-6cmxcRIZIMmVNyTmy-156" vertex="1">
          <mxGeometry x="2350" y="330" width="60" height="20" as="geometry" />
        </mxCell>
        <mxCell id="aC-6cmxcRIZIMmVNyTmy-274" value="1.2.0-RC-2" style="rounded=0;whiteSpace=wrap;html=1;strokeWidth=1;fontSize=10;fillColor=#ffff88;strokeColor=#36393d;" parent="aC-6cmxcRIZIMmVNyTmy-156" vertex="1">
          <mxGeometry x="2350" y="310" width="60" height="20" as="geometry" />
        </mxCell>
        <mxCell id="aC-6cmxcRIZIMmVNyTmy-190" value="Despliegues - tags" parent="0" visible="0" />
        <mxCell id="aC-6cmxcRIZIMmVNyTmy-191" value="1.0.0-RC-1" style="rounded=0;whiteSpace=wrap;html=1;strokeWidth=1;fontSize=10;" parent="aC-6cmxcRIZIMmVNyTmy-190" vertex="1">
          <mxGeometry x="430" y="130" width="60" height="20" as="geometry" />
        </mxCell>
        <mxCell id="aC-6cmxcRIZIMmVNyTmy-192" value="1.0.0" style="rounded=0;whiteSpace=wrap;html=1;strokeWidth=1;fontSize=10;" parent="aC-6cmxcRIZIMmVNyTmy-190" vertex="1">
          <mxGeometry x="800" y="20" width="60" height="20" as="geometry" />
        </mxCell>
        <mxCell id="aC-6cmxcRIZIMmVNyTmy-193" value="1.0.0-RC-2" style="rounded=0;whiteSpace=wrap;html=1;strokeWidth=1;fontSize=10;" parent="aC-6cmxcRIZIMmVNyTmy-190" vertex="1">
          <mxGeometry x="670" y="130" width="60" height="20" as="geometry" />
        </mxCell>
        <mxCell id="aC-6cmxcRIZIMmVNyTmy-194" value="1.1.0-F-1" style="rounded=0;whiteSpace=wrap;html=1;strokeWidth=1;fontSize=10;" parent="aC-6cmxcRIZIMmVNyTmy-190" vertex="1">
          <mxGeometry x="1110" y="130" width="60" height="20" as="geometry" />
        </mxCell>
        <mxCell id="aC-6cmxcRIZIMmVNyTmy-195" value="1.1.0-RC-1" style="rounded=0;whiteSpace=wrap;html=1;strokeWidth=1;fontSize=10;" parent="aC-6cmxcRIZIMmVNyTmy-190" vertex="1">
          <mxGeometry x="950" y="130" width="60" height="20" as="geometry" />
        </mxCell>
        <mxCell id="aC-6cmxcRIZIMmVNyTmy-196" value="1.1.0-RC-2" style="rounded=0;whiteSpace=wrap;html=1;strokeWidth=1;fontSize=10;" parent="aC-6cmxcRIZIMmVNyTmy-190" vertex="1">
          <mxGeometry x="1190" y="130" width="60" height="20" as="geometry" />
        </mxCell>
        <mxCell id="aC-6cmxcRIZIMmVNyTmy-197" value="1.1.0" style="rounded=0;whiteSpace=wrap;html=1;strokeWidth=1;fontSize=10;" parent="aC-6cmxcRIZIMmVNyTmy-190" vertex="1">
          <mxGeometry x="1320" y="20" width="60" height="20" as="geometry" />
        </mxCell>
        <mxCell id="aC-6cmxcRIZIMmVNyTmy-198" value="1.1.1" style="rounded=0;whiteSpace=wrap;html=1;strokeWidth=1;fontSize=10;" parent="aC-6cmxcRIZIMmVNyTmy-190" vertex="1">
          <mxGeometry x="1550" y="20" width="60" height="20" as="geometry" />
        </mxCell>
        <mxCell id="aC-6cmxcRIZIMmVNyTmy-199" value="1.0.0-SN-1" style="rounded=0;whiteSpace=wrap;html=1;strokeWidth=1;fontSize=10;" parent="aC-6cmxcRIZIMmVNyTmy-190" vertex="1">
          <mxGeometry x="430" y="750" width="60" height="20" as="geometry" />
        </mxCell>
        <mxCell id="aC-6cmxcRIZIMmVNyTmy-200" value="1.0.0-SN-2" style="rounded=0;whiteSpace=wrap;html=1;strokeWidth=1;fontSize=10;" parent="aC-6cmxcRIZIMmVNyTmy-190" vertex="1">
          <mxGeometry x="670" y="750" width="60" height="20" as="geometry" />
        </mxCell>
        <mxCell id="aC-6cmxcRIZIMmVNyTmy-201" value="1.1.0-SN-1" style="rounded=0;whiteSpace=wrap;html=1;strokeWidth=1;fontSize=10;" parent="aC-6cmxcRIZIMmVNyTmy-190" vertex="1">
          <mxGeometry x="960" y="750" width="60" height="20" as="geometry" />
        </mxCell>
        <mxCell id="aC-6cmxcRIZIMmVNyTmy-202" value="1.2.0-SN-1" style="rounded=0;whiteSpace=wrap;html=1;strokeWidth=1;fontSize=10;" parent="aC-6cmxcRIZIMmVNyTmy-190" vertex="1">
          <mxGeometry x="1560" y="750" width="60" height="20" as="geometry" />
        </mxCell>
        <mxCell id="aC-6cmxcRIZIMmVNyTmy-203" value="1.2.0-RC-1" style="rounded=0;whiteSpace=wrap;html=1;strokeWidth=1;fontSize=10;" parent="aC-6cmxcRIZIMmVNyTmy-190" vertex="1">
          <mxGeometry x="1870" y="130" width="60" height="20" as="geometry" />
        </mxCell>
        <mxCell id="aC-6cmxcRIZIMmVNyTmy-204" value="1.2.0-SN-2" style="rounded=0;whiteSpace=wrap;html=1;strokeWidth=1;fontSize=10;" parent="aC-6cmxcRIZIMmVNyTmy-190" vertex="1">
          <mxGeometry x="1720" y="750" width="60" height="20" as="geometry" />
        </mxCell>
        <mxCell id="aC-6cmxcRIZIMmVNyTmy-205" value="1.2.0-SN-3" style="rounded=0;whiteSpace=wrap;html=1;strokeWidth=1;fontSize=10;" parent="aC-6cmxcRIZIMmVNyTmy-190" vertex="1">
          <mxGeometry x="1880" y="750" width="60" height="20" as="geometry" />
        </mxCell>
        <mxCell id="aC-6cmxcRIZIMmVNyTmy-266" value="1.1.2" style="rounded=0;whiteSpace=wrap;html=1;strokeWidth=1;fontSize=10;" parent="aC-6cmxcRIZIMmVNyTmy-190" vertex="1">
          <mxGeometry x="2080" y="20" width="60" height="20" as="geometry" />
        </mxCell>
        <mxCell id="aC-6cmxcRIZIMmVNyTmy-267" value="1.1.3" style="rounded=0;whiteSpace=wrap;html=1;strokeWidth=1;fontSize=10;" parent="aC-6cmxcRIZIMmVNyTmy-190" vertex="1">
          <mxGeometry x="2200" y="20" width="60" height="20" as="geometry" />
        </mxCell>
        <mxCell id="aC-6cmxcRIZIMmVNyTmy-268" value="1.1.4" style="rounded=0;whiteSpace=wrap;html=1;strokeWidth=1;fontSize=10;" parent="aC-6cmxcRIZIMmVNyTmy-190" vertex="1">
          <mxGeometry x="2320" y="20" width="60" height="20" as="geometry" />
        </mxCell>
        <mxCell id="aC-6cmxcRIZIMmVNyTmy-276" value="1.1.1" style="rounded=0;whiteSpace=wrap;html=1;strokeWidth=1;fontSize=10;" parent="aC-6cmxcRIZIMmVNyTmy-190" vertex="1">
          <mxGeometry x="1410" y="20" width="60" height="20" as="geometry" />
        </mxCell>
        <mxCell id="aC-6cmxcRIZIMmVNyTmy-206" value="Notas" parent="0" visible="0" />
        <mxCell id="aC-6cmxcRIZIMmVNyTmy-207" style="edgeStyle=orthogonalEdgeStyle;curved=1;orthogonalLoop=1;jettySize=auto;html=1;entryX=0;entryY=0.5;entryDx=0;entryDy=0;dashed=1;fillColor=#6a00ff;strokeColor=#3700CC;strokeWidth=2;shadow=1;" parent="aC-6cmxcRIZIMmVNyTmy-206" source="aC-6cmxcRIZIMmVNyTmy-208" target="aC-6cmxcRIZIMmVNyTmy-211" edge="1">
          <mxGeometry relative="1" as="geometry" />
        </mxCell>
        <mxCell id="aC-6cmxcRIZIMmVNyTmy-208" value="&lt;h1&gt;Release process&lt;/h1&gt;&lt;p&gt;Aprobar la PR es el equivalente a generar una release candidate&lt;/p&gt;" style="text;html=1;fillColor=#6a00ff;spacing=5;spacingTop=-20;whiteSpace=wrap;overflow=hidden;rounded=0;strokeColor=#3700CC;fontColor=#ffffff;shadow=1;" parent="aC-6cmxcRIZIMmVNyTmy-206" vertex="1">
          <mxGeometry x="120" y="240" width="220" height="90" as="geometry" />
        </mxCell>
        <mxCell id="aC-6cmxcRIZIMmVNyTmy-209" style="edgeStyle=orthogonalEdgeStyle;curved=1;orthogonalLoop=1;jettySize=auto;html=1;entryX=0;entryY=0.5;entryDx=0;entryDy=0;dashed=1;fillColor=#6a00ff;strokeColor=#3700CC;strokeWidth=2;shadow=1;" parent="aC-6cmxcRIZIMmVNyTmy-206" source="aC-6cmxcRIZIMmVNyTmy-210" target="aC-6cmxcRIZIMmVNyTmy-212" edge="1">
          <mxGeometry relative="1" as="geometry" />
        </mxCell>
        <mxCell id="aC-6cmxcRIZIMmVNyTmy-210" value="&lt;h1&gt;Ampliar Release Candidate&lt;/h1&gt;&lt;div&gt;Aprobar una segunda PR es añadir una nueva funcionalidad a la Release Candidate. Estamos ante incrementos más pequeños.&lt;/div&gt;" style="text;html=1;strokeColor=#3700CC;fillColor=#6a00ff;spacing=5;spacingTop=-20;whiteSpace=wrap;overflow=hidden;rounded=0;fontColor=#ffffff;shadow=1;" parent="aC-6cmxcRIZIMmVNyTmy-206" vertex="1">
          <mxGeometry x="470" y="220" width="250" height="130" as="geometry" />
        </mxCell>
        <mxCell id="aC-6cmxcRIZIMmVNyTmy-211" value="" style="ellipse;whiteSpace=wrap;html=1;aspect=fixed;strokeColor=#3700CC;fontColor=#ffffff;fillColor=none;strokeWidth=2;shadow=1;" parent="aC-6cmxcRIZIMmVNyTmy-206" vertex="1">
          <mxGeometry x="380" y="400" width="80" height="80" as="geometry" />
        </mxCell>
        <mxCell id="aC-6cmxcRIZIMmVNyTmy-212" value="" style="ellipse;whiteSpace=wrap;html=1;aspect=fixed;strokeColor=#3700CC;fontColor=#ffffff;fillColor=none;strokeWidth=2;shadow=1;" parent="aC-6cmxcRIZIMmVNyTmy-206" vertex="1">
          <mxGeometry x="620" y="400" width="80" height="80" as="geometry" />
        </mxCell>
        <mxCell id="aC-6cmxcRIZIMmVNyTmy-213" value="" style="ellipse;whiteSpace=wrap;html=1;aspect=fixed;strokeColor=#3700CC;fontColor=#ffffff;fillColor=none;strokeWidth=2;shadow=1;" parent="aC-6cmxcRIZIMmVNyTmy-206" vertex="1">
          <mxGeometry x="740" y="260" width="80" height="80" as="geometry" />
        </mxCell>
        <mxCell id="aC-6cmxcRIZIMmVNyTmy-214" style="edgeStyle=orthogonalEdgeStyle;curved=1;orthogonalLoop=1;jettySize=auto;html=1;entryX=1;entryY=0.5;entryDx=0;entryDy=0;dashed=1;strokeWidth=2;exitX=0.5;exitY=1;exitDx=0;exitDy=0;fillColor=#6a00ff;strokeColor=#3700CC;shadow=1;" parent="aC-6cmxcRIZIMmVNyTmy-206" source="aC-6cmxcRIZIMmVNyTmy-215" target="aC-6cmxcRIZIMmVNyTmy-213" edge="1">
          <mxGeometry relative="1" as="geometry" />
        </mxCell>
        <mxCell id="aC-6cmxcRIZIMmVNyTmy-215" value="&lt;h1&gt;Liberar una Release&lt;/h1&gt;&lt;div&gt;Generar una Release a través del interfaz gráfico es el equivalente a lanzar el despliegue a Producción. La lista de approvers se configura en un environment.&lt;/div&gt;" style="text;html=1;strokeColor=#3700CC;fillColor=#6a00ff;spacing=5;spacingTop=-20;whiteSpace=wrap;overflow=hidden;rounded=0;fontColor=#ffffff;shadow=1;" parent="aC-6cmxcRIZIMmVNyTmy-206" vertex="1">
          <mxGeometry x="850" y="120" width="250" height="130" as="geometry" />
        </mxCell>
        <mxCell id="aC-6cmxcRIZIMmVNyTmy-216" value="" style="ellipse;whiteSpace=wrap;html=1;aspect=fixed;strokeColor=#3700CC;fontColor=#ffffff;fillColor=none;strokeWidth=2;shadow=1;" parent="aC-6cmxcRIZIMmVNyTmy-206" vertex="1">
          <mxGeometry x="660" y="670" width="80" height="80" as="geometry" />
        </mxCell>
        <mxCell id="aC-6cmxcRIZIMmVNyTmy-217" value="" style="ellipse;whiteSpace=wrap;html=1;aspect=fixed;strokeColor=#3700CC;fontColor=#ffffff;fillColor=none;strokeWidth=2;shadow=1;" parent="aC-6cmxcRIZIMmVNyTmy-206" vertex="1">
          <mxGeometry x="420" y="670" width="80" height="80" as="geometry" />
        </mxCell>
        <mxCell id="aC-6cmxcRIZIMmVNyTmy-218" style="edgeStyle=orthogonalEdgeStyle;curved=1;orthogonalLoop=1;jettySize=auto;html=1;entryX=0.5;entryY=1;entryDx=0;entryDy=0;dashed=1;strokeWidth=2;fillColor=#6a00ff;strokeColor=#3700CC;shadow=1;" parent="aC-6cmxcRIZIMmVNyTmy-206" source="aC-6cmxcRIZIMmVNyTmy-220" target="aC-6cmxcRIZIMmVNyTmy-217" edge="1">
          <mxGeometry relative="1" as="geometry" />
        </mxCell>
        <mxCell id="aC-6cmxcRIZIMmVNyTmy-219" style="edgeStyle=orthogonalEdgeStyle;curved=1;orthogonalLoop=1;jettySize=auto;html=1;entryX=0.5;entryY=1;entryDx=0;entryDy=0;dashed=1;strokeWidth=2;fillColor=#6a00ff;strokeColor=#3700CC;shadow=1;" parent="aC-6cmxcRIZIMmVNyTmy-206" source="aC-6cmxcRIZIMmVNyTmy-220" target="aC-6cmxcRIZIMmVNyTmy-216" edge="1">
          <mxGeometry relative="1" as="geometry" />
        </mxCell>
        <mxCell id="aC-6cmxcRIZIMmVNyTmy-220" value="&lt;h1&gt;Despliegues a integración&lt;/h1&gt;&lt;div&gt;Aprovechando la posibilidad de ejecutar workflows en una Pull Request se hace el despliegue al entorno de integración. &lt;b&gt;Hay que ver si tenemos todos los cambios y así olvidarnos de la rama de integración.&lt;/b&gt;&lt;/div&gt;" style="text;html=1;strokeColor=#3700CC;fillColor=#6a00ff;spacing=5;spacingTop=-20;whiteSpace=wrap;overflow=hidden;rounded=0;fontColor=#ffffff;shadow=1;" parent="aC-6cmxcRIZIMmVNyTmy-206" vertex="1">
          <mxGeometry x="450" y="800" width="250" height="160" as="geometry" />
        </mxCell>
        <mxCell id="aC-6cmxcRIZIMmVNyTmy-221" value="" style="ellipse;whiteSpace=wrap;html=1;aspect=fixed;strokeColor=#3700CC;fontColor=#ffffff;fillColor=none;strokeWidth=2;shadow=1;" parent="aC-6cmxcRIZIMmVNyTmy-206" vertex="1">
          <mxGeometry x="1100" y="400" width="80" height="80" as="geometry" />
        </mxCell>
        <mxCell id="aC-6cmxcRIZIMmVNyTmy-222" style="edgeStyle=orthogonalEdgeStyle;curved=1;orthogonalLoop=1;jettySize=auto;html=1;entryX=0.5;entryY=1;entryDx=0;entryDy=0;endArrow=classic;strokeWidth=2;dashed=1;strokeColor=#3700CC;fillColor=#6a00ff;shadow=1;" parent="aC-6cmxcRIZIMmVNyTmy-206" source="aC-6cmxcRIZIMmVNyTmy-224" target="aC-6cmxcRIZIMmVNyTmy-221" edge="1">
          <mxGeometry relative="1" as="geometry">
            <mxPoint x="1025" y="550" as="sourcePoint" />
          </mxGeometry>
        </mxCell>
        <mxCell id="aC-6cmxcRIZIMmVNyTmy-223" value="" style="ellipse;whiteSpace=wrap;html=1;aspect=fixed;strokeColor=#3700CC;fontColor=#ffffff;fillColor=none;strokeWidth=2;shadow=1;" parent="aC-6cmxcRIZIMmVNyTmy-206" vertex="1">
          <mxGeometry x="1340" y="400" width="80" height="80" as="geometry" />
        </mxCell>
        <mxCell id="aC-6cmxcRIZIMmVNyTmy-224" value="&lt;h1&gt;Origen de un Fix&lt;/h1&gt;&lt;div&gt;Los fixes se generar desde las release candidates o desde las releases por igual. Se despliegan al entorno de Pre.&lt;/div&gt;" style="text;html=1;strokeColor=#3700CC;fillColor=#6a00ff;spacing=5;spacingTop=-20;whiteSpace=wrap;overflow=hidden;rounded=0;fontColor=#ffffff;shadow=1;" parent="aC-6cmxcRIZIMmVNyTmy-206" vertex="1">
          <mxGeometry x="720" y="910" width="250" height="110" as="geometry" />
        </mxCell>
        <mxCell id="aC-6cmxcRIZIMmVNyTmy-225" style="edgeStyle=orthogonalEdgeStyle;curved=1;orthogonalLoop=1;jettySize=auto;html=1;endArrow=classic;strokeWidth=2;dashed=1;strokeColor=#3700CC;fillColor=#6a00ff;shadow=1;" parent="aC-6cmxcRIZIMmVNyTmy-206" source="aC-6cmxcRIZIMmVNyTmy-226" target="aC-6cmxcRIZIMmVNyTmy-223" edge="1">
          <mxGeometry relative="1" as="geometry" />
        </mxCell>
        <mxCell id="aC-6cmxcRIZIMmVNyTmy-226" value="&lt;h1&gt;Desplegar un HotFix&lt;/h1&gt;&lt;div&gt;Los HotFix se diferencian del Fix en que no se hace despliegue al entorno de Pre. Opcionalmente sería fácil de configurar y compartiría workflow con los Fix&lt;/div&gt;" style="text;html=1;strokeColor=#3700CC;fillColor=#6a00ff;spacing=5;spacingTop=-20;whiteSpace=wrap;overflow=hidden;rounded=0;fontColor=#ffffff;shadow=1;" parent="aC-6cmxcRIZIMmVNyTmy-206" vertex="1">
          <mxGeometry x="1080" y="620" width="250" height="130" as="geometry" />
        </mxCell>
        <mxCell id="aC-6cmxcRIZIMmVNyTmy-227" value="" style="ellipse;whiteSpace=wrap;html=1;aspect=fixed;strokeColor=#2D7600;fontColor=#ffffff;strokeWidth=2;fillColor=none;shadow=1;" parent="aC-6cmxcRIZIMmVNyTmy-206" vertex="1">
          <mxGeometry x="580" y="540" width="80" height="80" as="geometry" />
        </mxCell>
        <mxCell id="aC-6cmxcRIZIMmVNyTmy-228" value="" style="ellipse;whiteSpace=wrap;html=1;aspect=fixed;strokeColor=#2D7600;fontColor=#ffffff;strokeWidth=2;fillColor=none;shadow=1;" parent="aC-6cmxcRIZIMmVNyTmy-206" vertex="1">
          <mxGeometry x="1460" y="540" width="80" height="80" as="geometry" />
        </mxCell>
        <mxCell id="aC-6cmxcRIZIMmVNyTmy-229" style="orthogonalLoop=1;jettySize=auto;html=1;entryX=1;entryY=1;entryDx=0;entryDy=0;endArrow=classic;strokeWidth=2;dashed=1;strokeColor=#2D7600;fillColor=#60a917;rounded=0;exitX=0;exitY=0.5;exitDx=0;exitDy=0;shadow=1;" parent="aC-6cmxcRIZIMmVNyTmy-206" source="aC-6cmxcRIZIMmVNyTmy-231" target="aC-6cmxcRIZIMmVNyTmy-227" edge="1">
          <mxGeometry relative="1" as="geometry" />
        </mxCell>
        <mxCell id="aC-6cmxcRIZIMmVNyTmy-230" style="orthogonalLoop=1;jettySize=auto;html=1;entryX=0.5;entryY=1;entryDx=0;entryDy=0;endArrow=classic;strokeWidth=2;dashed=1;strokeColor=#2D7600;fillColor=#60a917;rounded=0;exitX=1;exitY=0.5;exitDx=0;exitDy=0;shadow=1;" parent="aC-6cmxcRIZIMmVNyTmy-206" source="aC-6cmxcRIZIMmVNyTmy-231" target="aC-6cmxcRIZIMmVNyTmy-228" edge="1">
          <mxGeometry relative="1" as="geometry" />
        </mxCell>
        <mxCell id="aC-6cmxcRIZIMmVNyTmy-231" value="&lt;h1&gt;Rebase&lt;/h1&gt;&lt;div&gt;Antes, o durante, un PR hay que incorporar todos los cambios de la rama principal. Lo ideal es incorporar estos commits mediante un rebase.&lt;/div&gt;" style="text;html=1;strokeColor=#2D7600;fillColor=#60a917;spacing=5;spacingTop=-20;whiteSpace=wrap;overflow=hidden;rounded=0;fontColor=#ffffff;shadow=1;" parent="aC-6cmxcRIZIMmVNyTmy-206" vertex="1">
          <mxGeometry x="970" y="780" width="250" height="110" as="geometry" />
        </mxCell>
        <mxCell id="mba0xVm1XPH_P8dEujyp-1" value="&lt;h1&gt;Origen Features&lt;/h1&gt;&lt;div&gt;Las ramas de nuevas funcionalidades parten siempre desde versiones estables.&lt;/div&gt;" style="text;html=1;strokeColor=#006EAF;fillColor=#1ba1e2;spacing=5;spacingTop=-20;whiteSpace=wrap;overflow=hidden;rounded=0;fontColor=#ffffff;shadow=1;" parent="aC-6cmxcRIZIMmVNyTmy-206" vertex="1">
          <mxGeometry x="580" y="-80" width="250" height="90" as="geometry" />
        </mxCell>
        <mxCell id="mba0xVm1XPH_P8dEujyp-2" value="" style="ellipse;whiteSpace=wrap;html=1;aspect=fixed;strokeColor=#006EAF;fontColor=#ffffff;strokeWidth=2;shadow=1;fillColor=none;" parent="aC-6cmxcRIZIMmVNyTmy-206" vertex="1">
          <mxGeometry x="660" y="340" width="80" height="80" as="geometry" />
        </mxCell>
        <mxCell id="mba0xVm1XPH_P8dEujyp-4" value="" style="ellipse;whiteSpace=wrap;html=1;aspect=fixed;strokeColor=#006EAF;fontColor=#ffffff;strokeWidth=2;shadow=1;fillColor=none;" parent="aC-6cmxcRIZIMmVNyTmy-206" vertex="1">
          <mxGeometry x="980" y="540" width="80" height="80" as="geometry" />
        </mxCell>
        <mxCell id="mba0xVm1XPH_P8dEujyp-6" style="edgeStyle=orthogonalEdgeStyle;curved=1;orthogonalLoop=1;jettySize=auto;html=1;shadow=1;dashed=1;strokeColor=#006EAF;strokeWidth=2;fillColor=#1ba1e2;" parent="aC-6cmxcRIZIMmVNyTmy-206" source="mba0xVm1XPH_P8dEujyp-1" edge="1">
          <mxGeometry relative="1" as="geometry">
            <mxPoint x="990" y="-65" as="sourcePoint" />
            <mxPoint x="700" y="350" as="targetPoint" />
          </mxGeometry>
        </mxCell>
        <mxCell id="mba0xVm1XPH_P8dEujyp-7" style="edgeStyle=orthogonalEdgeStyle;curved=1;orthogonalLoop=1;jettySize=auto;html=1;shadow=1;dashed=1;strokeColor=#006EAF;strokeWidth=2;fillColor=#1ba1e2;" parent="aC-6cmxcRIZIMmVNyTmy-206" source="mba0xVm1XPH_P8dEujyp-1" edge="1">
          <mxGeometry relative="1" as="geometry">
            <mxPoint x="1115" y="-20" as="sourcePoint" />
            <mxPoint x="1020" y="540" as="targetPoint" />
          </mxGeometry>
        </mxCell>
        <mxCell id="mba0xVm1XPH_P8dEujyp-8" value="" style="ellipse;whiteSpace=wrap;html=1;aspect=fixed;strokeColor=#006EAF;fontColor=#ffffff;strokeWidth=2;shadow=1;fillColor=none;" parent="aC-6cmxcRIZIMmVNyTmy-206" vertex="1">
          <mxGeometry x="100" y="460" width="80" height="80" as="geometry" />
        </mxCell>
        <mxCell id="mba0xVm1XPH_P8dEujyp-9" value="" style="ellipse;whiteSpace=wrap;html=1;aspect=fixed;strokeColor=#006EAF;fontColor=#ffffff;strokeWidth=2;shadow=1;fillColor=none;" parent="aC-6cmxcRIZIMmVNyTmy-206" vertex="1">
          <mxGeometry x="180" y="540" width="80" height="80" as="geometry" />
        </mxCell>
        <mxCell id="mba0xVm1XPH_P8dEujyp-10" style="edgeStyle=orthogonalEdgeStyle;curved=1;orthogonalLoop=1;jettySize=auto;html=1;shadow=1;dashed=1;strokeColor=#006EAF;strokeWidth=2;fillColor=#1ba1e2;" parent="aC-6cmxcRIZIMmVNyTmy-206" source="mba0xVm1XPH_P8dEujyp-1" target="mba0xVm1XPH_P8dEujyp-8" edge="1">
          <mxGeometry relative="1" as="geometry">
            <mxPoint x="1190" y="5" as="sourcePoint" />
            <mxPoint x="710" y="360" as="targetPoint" />
          </mxGeometry>
        </mxCell>
        <mxCell id="mba0xVm1XPH_P8dEujyp-11" style="edgeStyle=orthogonalEdgeStyle;curved=1;orthogonalLoop=1;jettySize=auto;html=1;shadow=1;dashed=1;strokeColor=#006EAF;strokeWidth=2;fillColor=#1ba1e2;" parent="aC-6cmxcRIZIMmVNyTmy-206" source="mba0xVm1XPH_P8dEujyp-1" target="mba0xVm1XPH_P8dEujyp-9" edge="1">
          <mxGeometry relative="1" as="geometry">
            <mxPoint x="1190" y="5" as="sourcePoint" />
            <mxPoint x="150" y="470" as="targetPoint" />
          </mxGeometry>
        </mxCell>
        <mxCell id="mba0xVm1XPH_P8dEujyp-15" value="&lt;h1&gt;Desplegar un HotFix&lt;/h1&gt;&lt;div&gt;Los HF, al igual que ocurre con las ramas de feature, salen de las versiones estables. Habrá que revisar si podemos hacer el PR sin conflictos en este punto o toca rebase.&lt;/div&gt;" style="text;html=1;strokeColor=#3700CC;fillColor=#6a00ff;spacing=5;spacingTop=-20;whiteSpace=wrap;overflow=hidden;rounded=0;fontColor=#ffffff;shadow=1;" parent="aC-6cmxcRIZIMmVNyTmy-206" vertex="1">
          <mxGeometry x="2130" y="540" width="250" height="130" as="geometry" />
        </mxCell>
        <mxCell id="mba0xVm1XPH_P8dEujyp-16" value="" style="ellipse;whiteSpace=wrap;html=1;aspect=fixed;strokeColor=#3700CC;fontColor=#ffffff;fillColor=none;strokeWidth=2;shadow=1;" parent="aC-6cmxcRIZIMmVNyTmy-206" vertex="1">
          <mxGeometry x="1980" y="460" width="80" height="80" as="geometry" />
        </mxCell>
        <mxCell id="mba0xVm1XPH_P8dEujyp-17" style="edgeStyle=orthogonalEdgeStyle;curved=1;orthogonalLoop=1;jettySize=auto;html=1;endArrow=classic;strokeWidth=2;dashed=1;strokeColor=#3700CC;fillColor=#6a00ff;shadow=1;entryX=0.5;entryY=1;entryDx=0;entryDy=0;" parent="aC-6cmxcRIZIMmVNyTmy-206" source="mba0xVm1XPH_P8dEujyp-15" target="mba0xVm1XPH_P8dEujyp-16" edge="1">
          <mxGeometry relative="1" as="geometry">
            <mxPoint x="1340" y="695" as="sourcePoint" />
            <mxPoint x="1390" y="490" as="targetPoint" />
          </mxGeometry>
        </mxCell>
        <mxCell id="aC-6cmxcRIZIMmVNyTmy-239" value="Notas versiones y tags" parent="0" visible="0" />
        <mxCell id="aC-6cmxcRIZIMmVNyTmy-240" style="edgeStyle=none;rounded=0;orthogonalLoop=1;jettySize=auto;html=1;fontSize=10;endArrow=none;endFill=0;strokeWidth=2;fillColor=#a20025;strokeColor=#6F0000;dashed=1;shadow=1;" parent="aC-6cmxcRIZIMmVNyTmy-239" source="aC-6cmxcRIZIMmVNyTmy-244" target="aC-6cmxcRIZIMmVNyTmy-245" edge="1">
          <mxGeometry relative="1" as="geometry" />
        </mxCell>
        <mxCell id="aC-6cmxcRIZIMmVNyTmy-241" style="edgeStyle=none;rounded=0;orthogonalLoop=1;jettySize=auto;html=1;fontSize=10;endArrow=none;endFill=0;strokeWidth=2;fillColor=#a20025;strokeColor=#6F0000;dashed=1;shadow=1;" parent="aC-6cmxcRIZIMmVNyTmy-239" source="aC-6cmxcRIZIMmVNyTmy-244" target="aC-6cmxcRIZIMmVNyTmy-246" edge="1">
          <mxGeometry relative="1" as="geometry" />
        </mxCell>
        <mxCell id="aC-6cmxcRIZIMmVNyTmy-242" style="edgeStyle=none;rounded=0;orthogonalLoop=1;jettySize=auto;html=1;fontSize=10;endArrow=none;endFill=0;strokeWidth=2;fillColor=#a20025;strokeColor=#6F0000;dashed=1;shadow=1;" parent="aC-6cmxcRIZIMmVNyTmy-239" source="aC-6cmxcRIZIMmVNyTmy-244" target="aC-6cmxcRIZIMmVNyTmy-247" edge="1">
          <mxGeometry relative="1" as="geometry" />
        </mxCell>
        <mxCell id="aC-6cmxcRIZIMmVNyTmy-243" style="edgeStyle=none;rounded=0;orthogonalLoop=1;jettySize=auto;html=1;fontSize=10;endArrow=none;endFill=0;strokeWidth=2;fillColor=#a20025;strokeColor=#6F0000;dashed=1;shadow=1;" parent="aC-6cmxcRIZIMmVNyTmy-239" source="aC-6cmxcRIZIMmVNyTmy-244" target="aC-6cmxcRIZIMmVNyTmy-248" edge="1">
          <mxGeometry relative="1" as="geometry" />
        </mxCell>
        <mxCell id="aC-6cmxcRIZIMmVNyTmy-244" value="&lt;h1&gt;Funcionalidades conjuntas&lt;/h1&gt;&lt;p&gt;Las funcionalidades A y B forman parte de la misma versión pero se entregan a diferente ritmo. Por eso se generan dos Release Candidates&lt;/p&gt;" style="text;html=1;fillColor=#a20025;spacing=5;spacingTop=-20;whiteSpace=wrap;overflow=hidden;rounded=0;strokeColor=#6F0000;fontColor=#ffffff;shadow=1;" parent="aC-6cmxcRIZIMmVNyTmy-239" vertex="1">
          <mxGeometry x="120" y="70" width="220" height="140" as="geometry" />
        </mxCell>
        <mxCell id="aC-6cmxcRIZIMmVNyTmy-245" value="" style="ellipse;whiteSpace=wrap;html=1;aspect=fixed;strokeColor=#6F0000;strokeWidth=2;fontColor=#ffffff;fillColor=none;shadow=1;" parent="aC-6cmxcRIZIMmVNyTmy-239" vertex="1">
          <mxGeometry x="100" y="410" width="80" height="80" as="geometry" />
        </mxCell>
        <mxCell id="aC-6cmxcRIZIMmVNyTmy-246" value="" style="ellipse;whiteSpace=wrap;html=1;aspect=fixed;strokeColor=#6F0000;strokeWidth=2;fontColor=#ffffff;fillColor=none;shadow=1;" parent="aC-6cmxcRIZIMmVNyTmy-239" vertex="1">
          <mxGeometry x="180" y="500" width="80" height="80" as="geometry" />
        </mxCell>
        <mxCell id="aC-6cmxcRIZIMmVNyTmy-247" value="" style="ellipse;whiteSpace=wrap;html=1;aspect=fixed;strokeColor=#6F0000;strokeWidth=2;fontColor=#ffffff;fillColor=none;shadow=1;" parent="aC-6cmxcRIZIMmVNyTmy-239" vertex="1">
          <mxGeometry x="370" y="290" width="80" height="80" as="geometry" />
        </mxCell>
        <mxCell id="aC-6cmxcRIZIMmVNyTmy-248" value="" style="ellipse;whiteSpace=wrap;html=1;aspect=fixed;strokeColor=#6F0000;strokeWidth=2;fontColor=#ffffff;fillColor=none;shadow=1;" parent="aC-6cmxcRIZIMmVNyTmy-239" vertex="1">
          <mxGeometry x="610" y="280" width="80" height="80" as="geometry" />
        </mxCell>
        <mxCell id="aC-6cmxcRIZIMmVNyTmy-249" value="&lt;h1&gt;Se hace un fix sobre una versión no liberada&lt;/h1&gt;&lt;p&gt;Sobre la versión 1.1.0, todavía en RC, se decide hacer un fix, lo que generará la etiqueta 1.1.0-RC-2&lt;/p&gt;" style="text;html=1;fillColor=#a20025;spacing=5;spacingTop=-20;whiteSpace=wrap;overflow=hidden;rounded=0;strokeColor=#6F0000;fontColor=#ffffff;shadow=1;" parent="aC-6cmxcRIZIMmVNyTmy-239" vertex="1">
          <mxGeometry x="950" y="-30" width="300" height="120" as="geometry" />
        </mxCell>
        <mxCell id="aC-6cmxcRIZIMmVNyTmy-250" value="" style="ellipse;whiteSpace=wrap;html=1;aspect=fixed;strokeColor=#6F0000;strokeWidth=2;fontColor=#ffffff;fillColor=none;shadow=1;" parent="aC-6cmxcRIZIMmVNyTmy-239" vertex="1">
          <mxGeometry x="900" y="290" width="80" height="80" as="geometry" />
        </mxCell>
        <mxCell id="aC-6cmxcRIZIMmVNyTmy-251" value="" style="ellipse;whiteSpace=wrap;html=1;aspect=fixed;strokeColor=#6F0000;strokeWidth=2;fontColor=#ffffff;fillColor=none;shadow=1;" parent="aC-6cmxcRIZIMmVNyTmy-239" vertex="1">
          <mxGeometry x="1140" y="280" width="80" height="80" as="geometry" />
        </mxCell>
        <mxCell id="aC-6cmxcRIZIMmVNyTmy-257" style="edgeStyle=none;rounded=0;orthogonalLoop=1;jettySize=auto;html=1;exitX=0.5;exitY=1;exitDx=0;exitDy=0;dashed=1;fontSize=10;endArrow=none;endFill=0;strokeWidth=2;fillColor=#d80073;strokeColor=#A50040;shadow=1;" parent="aC-6cmxcRIZIMmVNyTmy-239" target="aC-6cmxcRIZIMmVNyTmy-250" edge="1">
          <mxGeometry relative="1" as="geometry">
            <mxPoint x="1100" y="90" as="sourcePoint" />
            <mxPoint x="940" y="290" as="targetPoint" />
          </mxGeometry>
        </mxCell>
        <mxCell id="aC-6cmxcRIZIMmVNyTmy-258" style="edgeStyle=none;rounded=0;orthogonalLoop=1;jettySize=auto;html=1;exitX=0.5;exitY=1;exitDx=0;exitDy=0;entryX=0.5;entryY=0;entryDx=0;entryDy=0;dashed=1;fontSize=10;endArrow=none;endFill=0;strokeWidth=2;fillColor=#a20025;strokeColor=#6F0000;shadow=1;" parent="aC-6cmxcRIZIMmVNyTmy-239" target="aC-6cmxcRIZIMmVNyTmy-251" edge="1">
          <mxGeometry relative="1" as="geometry">
            <mxPoint x="1100" y="90" as="sourcePoint" />
            <mxPoint x="1180" y="280" as="targetPoint" />
          </mxGeometry>
        </mxCell>
        <mxCell id="aC-6cmxcRIZIMmVNyTmy-279" value="Revisar" parent="0" visible="0" />
        <mxCell id="aC-6cmxcRIZIMmVNyTmy-280" style="rounded=0;orthogonalLoop=1;jettySize=auto;html=1;exitX=0;exitY=0.5;exitDx=0;exitDy=0;shadow=1;dashed=1;fontSize=10;strokeColor=#23445d;strokeWidth=2;fillColor=#bac8d3;endFill=0;endArrow=none;" parent="aC-6cmxcRIZIMmVNyTmy-279" source="aC-6cmxcRIZIMmVNyTmy-282" target="aC-6cmxcRIZIMmVNyTmy-289" edge="1">
          <mxGeometry relative="1" as="geometry" />
        </mxCell>
        <mxCell id="aC-6cmxcRIZIMmVNyTmy-281" style="edgeStyle=none;rounded=0;orthogonalLoop=1;jettySize=auto;html=1;exitX=0;exitY=0.5;exitDx=0;exitDy=0;shadow=1;dashed=1;fontSize=10;strokeColor=#23445d;strokeWidth=2;fillColor=#bac8d3;endFill=0;endArrow=none;" parent="aC-6cmxcRIZIMmVNyTmy-279" source="aC-6cmxcRIZIMmVNyTmy-282" target="aC-6cmxcRIZIMmVNyTmy-290" edge="1">
          <mxGeometry relative="1" as="geometry" />
        </mxCell>
        <mxCell id="aC-6cmxcRIZIMmVNyTmy-282" value="&lt;h1&gt;Algo no está bien&lt;/h1&gt;&lt;p&gt;Cuando se realiza un HF, que puede ir directamente a producción hay que revisar qué hacer con los tags y versiones para no perder trazabilidad.&lt;/p&gt;" style="text;html=1;fillColor=#bac8d3;spacing=5;spacingTop=-20;whiteSpace=wrap;overflow=hidden;rounded=0;strokeColor=#23445d;shadow=1;" parent="aC-6cmxcRIZIMmVNyTmy-279" vertex="1">
          <mxGeometry x="1610" y="180" width="300" height="120" as="geometry" />
        </mxCell>
        <mxCell id="aC-6cmxcRIZIMmVNyTmy-283" value="" style="ellipse;whiteSpace=wrap;html=1;aspect=fixed;strokeColor=#23445d;strokeWidth=2;shadow=1;sketch=0;perimeterSpacing=0;fillColor=none;" parent="aC-6cmxcRIZIMmVNyTmy-279" vertex="1">
          <mxGeometry x="1300" y="410" width="80" height="80" as="geometry" />
        </mxCell>
        <mxCell id="aC-6cmxcRIZIMmVNyTmy-284" value="" style="ellipse;whiteSpace=wrap;html=1;aspect=fixed;strokeColor=#23445d;strokeWidth=2;shadow=1;sketch=0;perimeterSpacing=0;fillColor=none;" parent="aC-6cmxcRIZIMmVNyTmy-279" vertex="1">
          <mxGeometry x="1340" y="290" width="80" height="80" as="geometry" />
        </mxCell>
        <mxCell id="aC-6cmxcRIZIMmVNyTmy-285" value="" style="ellipse;whiteSpace=wrap;html=1;aspect=fixed;strokeColor=#23445d;strokeWidth=2;shadow=1;sketch=0;perimeterSpacing=0;fillColor=none;" parent="aC-6cmxcRIZIMmVNyTmy-279" vertex="1">
          <mxGeometry x="1540" y="-10" width="80" height="80" as="geometry" />
        </mxCell>
        <mxCell id="aC-6cmxcRIZIMmVNyTmy-286" style="edgeStyle=none;rounded=0;orthogonalLoop=1;jettySize=auto;html=1;exitX=0;exitY=0.5;exitDx=0;exitDy=0;dashed=1;fontSize=10;endArrow=none;endFill=0;strokeWidth=2;fillColor=#bac8d3;strokeColor=#23445d;shadow=1;" parent="aC-6cmxcRIZIMmVNyTmy-279" target="aC-6cmxcRIZIMmVNyTmy-284" edge="1">
          <mxGeometry relative="1" as="geometry">
            <mxPoint x="1610" y="239.99999999999977" as="sourcePoint" />
            <mxPoint x="1420" y="320" as="targetPoint" />
          </mxGeometry>
        </mxCell>
        <mxCell id="aC-6cmxcRIZIMmVNyTmy-287" style="edgeStyle=none;rounded=0;orthogonalLoop=1;jettySize=auto;html=1;exitX=0;exitY=0.5;exitDx=0;exitDy=0;dashed=1;fontSize=10;endArrow=none;endFill=0;strokeWidth=2;fillColor=#bac8d3;strokeColor=#23445d;shadow=1;" parent="aC-6cmxcRIZIMmVNyTmy-279" target="aC-6cmxcRIZIMmVNyTmy-283" edge="1">
          <mxGeometry relative="1" as="geometry">
            <mxPoint x="1610" y="239.99999999999977" as="sourcePoint" />
            <mxPoint x="1380" y="450" as="targetPoint" />
          </mxGeometry>
        </mxCell>
        <mxCell id="aC-6cmxcRIZIMmVNyTmy-288" style="edgeStyle=none;rounded=0;orthogonalLoop=1;jettySize=auto;html=1;exitX=0;exitY=0.5;exitDx=0;exitDy=0;dashed=1;fontSize=10;endArrow=none;endFill=0;strokeWidth=2;fillColor=#bac8d3;strokeColor=#23445d;shadow=1;" parent="aC-6cmxcRIZIMmVNyTmy-279" target="aC-6cmxcRIZIMmVNyTmy-285" edge="1">
          <mxGeometry relative="1" as="geometry">
            <mxPoint x="1610" y="239.99999999999977" as="sourcePoint" />
            <mxPoint x="1550" y="70" as="targetPoint" />
          </mxGeometry>
        </mxCell>
        <mxCell id="aC-6cmxcRIZIMmVNyTmy-289" value="" style="ellipse;whiteSpace=wrap;html=1;aspect=fixed;strokeColor=#23445d;strokeWidth=2;shadow=1;sketch=0;perimeterSpacing=0;fillColor=none;" parent="aC-6cmxcRIZIMmVNyTmy-279" vertex="1">
          <mxGeometry x="1140" y="280" width="80" height="80" as="geometry" />
        </mxCell>
        <mxCell id="aC-6cmxcRIZIMmVNyTmy-290" value="" style="ellipse;whiteSpace=wrap;html=1;aspect=fixed;strokeColor=#23445d;strokeWidth=2;shadow=1;sketch=0;perimeterSpacing=0;fillColor=none;" parent="aC-6cmxcRIZIMmVNyTmy-279" vertex="1">
          <mxGeometry x="1310" y="-10" width="80" height="80" as="geometry" />
        </mxCell>
        <mxCell id="aC-6cmxcRIZIMmVNyTmy-291" value="" style="ellipse;whiteSpace=wrap;html=1;aspect=fixed;strokeColor=#23445d;strokeWidth=2;shadow=1;sketch=0;perimeterSpacing=0;fillColor=none;" parent="aC-6cmxcRIZIMmVNyTmy-279" vertex="1">
          <mxGeometry x="1400" y="-10" width="80" height="80" as="geometry" />
        </mxCell>
        <mxCell id="aC-6cmxcRIZIMmVNyTmy-292" style="edgeStyle=none;rounded=0;orthogonalLoop=1;jettySize=auto;html=1;exitX=0;exitY=0.5;exitDx=0;exitDy=0;dashed=1;fontSize=10;endArrow=none;endFill=0;strokeWidth=2;fillColor=#bac8d3;strokeColor=#23445d;shadow=1;" parent="aC-6cmxcRIZIMmVNyTmy-279" source="aC-6cmxcRIZIMmVNyTmy-282" target="aC-6cmxcRIZIMmVNyTmy-291" edge="1">
          <mxGeometry relative="1" as="geometry">
            <mxPoint x="1620" y="250" as="sourcePoint" />
            <mxPoint x="1595.5732429977684" y="79.60983416271142" as="targetPoint" />
          </mxGeometry>
        </mxCell>
        <mxCell id="aC-6cmxcRIZIMmVNyTmy-293" value="" style="ellipse;whiteSpace=wrap;html=1;aspect=fixed;strokeColor=#56517e;strokeWidth=2;shadow=1;fillColor=none;" parent="aC-6cmxcRIZIMmVNyTmy-279" vertex="1">
          <mxGeometry x="1630" y="630" width="150" height="150" as="geometry" />
        </mxCell>
        <mxCell id="aC-6cmxcRIZIMmVNyTmy-294" value="" style="ellipse;whiteSpace=wrap;html=1;aspect=fixed;strokeColor=#56517e;strokeWidth=2;shadow=1;fillColor=none;" parent="aC-6cmxcRIZIMmVNyTmy-279" vertex="1">
          <mxGeometry x="1790" y="630" width="150" height="150" as="geometry" />
        </mxCell>
        <mxCell id="aC-6cmxcRIZIMmVNyTmy-295" style="edgeStyle=none;orthogonalLoop=1;jettySize=auto;html=1;exitX=0.5;exitY=0;exitDx=0;exitDy=0;entryX=0.5;entryY=1;entryDx=0;entryDy=0;dashed=1;fontSize=11;endArrow=classic;strokeWidth=2;rounded=0;strokeColor=#56517e;fillColor=#d0cee2;shadow=1;" parent="aC-6cmxcRIZIMmVNyTmy-279" source="aC-6cmxcRIZIMmVNyTmy-296" target="aC-6cmxcRIZIMmVNyTmy-299" edge="1">
          <mxGeometry relative="1" as="geometry" />
        </mxCell>
        <mxCell id="aC-6cmxcRIZIMmVNyTmy-296" value="&lt;h1&gt;Contribuciones en la PR&lt;/h1&gt;&lt;div&gt;¿Realmente son necesarios los despliegues de la feature si está la PR abierta?&lt;/div&gt;" style="text;html=1;strokeColor=#56517e;fillColor=#d0cee2;spacing=5;spacingTop=-20;whiteSpace=wrap;overflow=hidden;rounded=0;shadow=1;" parent="aC-6cmxcRIZIMmVNyTmy-279" vertex="1">
          <mxGeometry x="1580" y="830" width="300" height="110" as="geometry" />
        </mxCell>
        <mxCell id="aC-6cmxcRIZIMmVNyTmy-297" style="orthogonalLoop=1;jettySize=auto;html=1;entryX=0.5;entryY=1;entryDx=0;entryDy=0;dashed=1;fontSize=11;endArrow=classic;strokeWidth=2;rounded=0;strokeColor=#56517e;fillColor=#d0cee2;exitX=0.5;exitY=0;exitDx=0;exitDy=0;shadow=1;" parent="aC-6cmxcRIZIMmVNyTmy-279" source="aC-6cmxcRIZIMmVNyTmy-296" target="aC-6cmxcRIZIMmVNyTmy-293" edge="1">
          <mxGeometry relative="1" as="geometry">
            <mxPoint x="1660.7142857142858" y="820" as="sourcePoint" />
            <mxPoint x="1625" y="770" as="targetPoint" />
          </mxGeometry>
        </mxCell>
        <mxCell id="aC-6cmxcRIZIMmVNyTmy-298" style="orthogonalLoop=1;jettySize=auto;html=1;exitX=0.5;exitY=0;exitDx=0;exitDy=0;entryX=0.5;entryY=1;entryDx=0;entryDy=0;dashed=1;fontSize=11;endArrow=classic;strokeWidth=2;rounded=0;strokeColor=#56517e;fillColor=#d0cee2;shadow=1;" parent="aC-6cmxcRIZIMmVNyTmy-279" source="aC-6cmxcRIZIMmVNyTmy-296" target="aC-6cmxcRIZIMmVNyTmy-294" edge="1">
          <mxGeometry relative="1" as="geometry">
            <mxPoint x="1700" y="820" as="sourcePoint" />
            <mxPoint x="1785" y="770" as="targetPoint" />
          </mxGeometry>
        </mxCell>
        <mxCell id="aC-6cmxcRIZIMmVNyTmy-299" value="" style="ellipse;whiteSpace=wrap;html=1;aspect=fixed;strokeColor=#56517e;strokeWidth=2;shadow=1;fillColor=none;" parent="aC-6cmxcRIZIMmVNyTmy-279" vertex="1">
          <mxGeometry x="1470" y="630" width="150" height="150" as="geometry" />
        </mxCell>
        <mxCell id="7D0shIT3l6bG66J5Vg1D-0" value="GH WRKFLs" parent="0" />
        <mxCell id="7D0shIT3l6bG66J5Vg1D-9" style="edgeStyle=orthogonalEdgeStyle;rounded=0;orthogonalLoop=1;jettySize=auto;html=1;entryX=0.5;entryY=1;entryDx=0;entryDy=0;fillColor=#dae8fc;strokeColor=#6c8ebf;strokeWidth=5;" edge="1" parent="7D0shIT3l6bG66J5Vg1D-0" source="7D0shIT3l6bG66J5Vg1D-1" target="aC-6cmxcRIZIMmVNyTmy-7">
          <mxGeometry relative="1" as="geometry" />
        </mxCell>
        <mxCell id="7D0shIT3l6bG66J5Vg1D-1" value="feature.yml" style="rounded=0;whiteSpace=wrap;html=1;fillColor=#dae8fc;strokeColor=#6c8ebf;strokeWidth=5;" vertex="1" parent="7D0shIT3l6bG66J5Vg1D-0">
          <mxGeometry x="80" y="800" width="120" height="60" as="geometry" />
        </mxCell>
        <mxCell id="7D0shIT3l6bG66J5Vg1D-10" style="rounded=0;orthogonalLoop=1;jettySize=auto;html=1;entryX=0.5;entryY=1;entryDx=0;entryDy=0;strokeWidth=5;fillColor=#fff2cc;strokeColor=#d6b656;" edge="1" parent="7D0shIT3l6bG66J5Vg1D-0" source="7D0shIT3l6bG66J5Vg1D-2" target="aC-6cmxcRIZIMmVNyTmy-28">
          <mxGeometry relative="1" as="geometry" />
        </mxCell>
        <mxCell id="7D0shIT3l6bG66J5Vg1D-17" style="rounded=0;orthogonalLoop=1;jettySize=auto;html=1;exitX=0.5;exitY=0;exitDx=0;exitDy=0;strokeWidth=5;fillColor=#f8cecc;strokeColor=#b85450;" edge="1" parent="7D0shIT3l6bG66J5Vg1D-0" source="7D0shIT3l6bG66J5Vg1D-3" target="aC-6cmxcRIZIMmVNyTmy-16">
          <mxGeometry relative="1" as="geometry" />
        </mxCell>
        <mxCell id="7D0shIT3l6bG66J5Vg1D-2" value="pr-feature-main.yml" style="rounded=0;whiteSpace=wrap;html=1;fillColor=#fff2cc;strokeColor=#d6b656;strokeWidth=5;" vertex="1" parent="7D0shIT3l6bG66J5Vg1D-0">
          <mxGeometry x="360" y="800" width="120" height="60" as="geometry" />
        </mxCell>
        <mxCell id="7D0shIT3l6bG66J5Vg1D-3" value="main.yml&lt;br&gt;ó&lt;br&gt;release-candidate.yml" style="rounded=0;whiteSpace=wrap;html=1;fillColor=#f8cecc;strokeColor=#b85450;strokeWidth=5;" vertex="1" parent="7D0shIT3l6bG66J5Vg1D-0">
          <mxGeometry x="400" y="970" width="120" height="60" as="geometry" />
        </mxCell>
        <mxCell id="7D0shIT3l6bG66J5Vg1D-12" style="edgeStyle=orthogonalEdgeStyle;rounded=0;orthogonalLoop=1;jettySize=auto;html=1;entryX=0.5;entryY=1;entryDx=0;entryDy=0;strokeWidth=5;fillColor=#f8cecc;strokeColor=#b85450;" edge="1" parent="7D0shIT3l6bG66J5Vg1D-0" source="7D0shIT3l6bG66J5Vg1D-4" target="aC-6cmxcRIZIMmVNyTmy-144">
          <mxGeometry relative="1" as="geometry" />
        </mxCell>
        <mxCell id="7D0shIT3l6bG66J5Vg1D-4" value="release.yml" style="rounded=0;whiteSpace=wrap;html=1;fillColor=#f8cecc;strokeColor=#b85450;strokeWidth=5;" vertex="1" parent="7D0shIT3l6bG66J5Vg1D-0">
          <mxGeometry x="720" y="800" width="120" height="60" as="geometry" />
        </mxCell>
        <mxCell id="7D0shIT3l6bG66J5Vg1D-14" style="edgeStyle=orthogonalEdgeStyle;rounded=0;orthogonalLoop=1;jettySize=auto;html=1;entryX=0.5;entryY=1;entryDx=0;entryDy=0;strokeWidth=5;fillColor=#e1d5e7;strokeColor=#9673a6;" edge="1" parent="7D0shIT3l6bG66J5Vg1D-0" source="7D0shIT3l6bG66J5Vg1D-5" target="aC-6cmxcRIZIMmVNyTmy-53">
          <mxGeometry relative="1" as="geometry" />
        </mxCell>
        <mxCell id="7D0shIT3l6bG66J5Vg1D-5" value="pr-fix-main.yml" style="rounded=0;whiteSpace=wrap;html=1;fillColor=#e1d5e7;strokeColor=#9673a6;strokeWidth=5;" vertex="1" parent="7D0shIT3l6bG66J5Vg1D-0">
          <mxGeometry x="1080" y="960" width="120" height="60" as="geometry" />
        </mxCell>
        <mxCell id="7D0shIT3l6bG66J5Vg1D-13" style="edgeStyle=orthogonalEdgeStyle;rounded=0;orthogonalLoop=1;jettySize=auto;html=1;entryX=0.5;entryY=1;entryDx=0;entryDy=0;strokeWidth=5;fillColor=#e1d5e7;strokeColor=#9673a6;" edge="1" parent="7D0shIT3l6bG66J5Vg1D-0" source="7D0shIT3l6bG66J5Vg1D-6" target="aC-6cmxcRIZIMmVNyTmy-48">
          <mxGeometry relative="1" as="geometry" />
        </mxCell>
        <mxCell id="7D0shIT3l6bG66J5Vg1D-6" value="fix.yml" style="rounded=0;whiteSpace=wrap;html=1;fillColor=#e1d5e7;strokeColor=#9673a6;strokeWidth=5;" vertex="1" parent="7D0shIT3l6bG66J5Vg1D-0">
          <mxGeometry x="1040" y="800" width="120" height="60" as="geometry" />
        </mxCell>
        <mxCell id="7D0shIT3l6bG66J5Vg1D-15" style="edgeStyle=orthogonalEdgeStyle;rounded=0;orthogonalLoop=1;jettySize=auto;html=1;entryX=0.5;entryY=1;entryDx=0;entryDy=0;strokeWidth=5;fillColor=#b0e3e6;strokeColor=#0e8088;" edge="1" parent="7D0shIT3l6bG66J5Vg1D-0" source="7D0shIT3l6bG66J5Vg1D-7" target="aC-6cmxcRIZIMmVNyTmy-56">
          <mxGeometry relative="1" as="geometry" />
        </mxCell>
        <mxCell id="7D0shIT3l6bG66J5Vg1D-16" style="edgeStyle=orthogonalEdgeStyle;rounded=0;orthogonalLoop=1;jettySize=auto;html=1;entryX=0.5;entryY=1;entryDx=0;entryDy=0;strokeWidth=5;fillColor=#b0e3e6;strokeColor=#0e8088;" edge="1" parent="7D0shIT3l6bG66J5Vg1D-0" source="7D0shIT3l6bG66J5Vg1D-8" target="aC-6cmxcRIZIMmVNyTmy-71">
          <mxGeometry relative="1" as="geometry" />
        </mxCell>
        <mxCell id="7D0shIT3l6bG66J5Vg1D-7" value="hot-fix.yml" style="rounded=0;whiteSpace=wrap;html=1;fillColor=#b0e3e6;strokeColor=#0e8088;strokeWidth=5;" vertex="1" parent="7D0shIT3l6bG66J5Vg1D-0">
          <mxGeometry x="1280" y="800" width="120" height="60" as="geometry" />
        </mxCell>
        <mxCell id="7D0shIT3l6bG66J5Vg1D-8" value="pr-hf-main.yml" style="rounded=0;whiteSpace=wrap;html=1;fillColor=#b0e3e6;strokeColor=#0e8088;strokeWidth=5;" vertex="1" parent="7D0shIT3l6bG66J5Vg1D-0">
          <mxGeometry x="1320" y="880" width="120" height="60" as="geometry" />
        </mxCell>
        <mxCell id="7D0shIT3l6bG66J5Vg1D-20" value="&lt;font face=&quot;Courier New&quot;&gt;&lt;span class=&quot;pl-ent&quot; style=&quot;box-sizing: border-box ; font-family: , , &amp;#34;sf mono&amp;#34; , &amp;#34;consolas&amp;#34; , &amp;#34;liberation mono&amp;#34; , &amp;#34;menlo&amp;#34; , monospace&quot;&gt;on&lt;/span&gt;&lt;span style=&quot;color: rgb(36 , 41 , 47) ; font-family: , , &amp;#34;sf mono&amp;#34; , &amp;#34;consolas&amp;#34; , &amp;#34;liberation mono&amp;#34; , &amp;#34;menlo&amp;#34; , monospace&quot;&gt;:&lt;br&gt;&amp;nbsp;&amp;nbsp;&lt;/span&gt;&lt;span class=&quot;pl-s&quot; style=&quot;box-sizing: border-box ; font-family: , , &amp;#34;sf mono&amp;#34; , &amp;#34;consolas&amp;#34; , &amp;#34;liberation mono&amp;#34; , &amp;#34;menlo&amp;#34; , monospace&quot;&gt;pull_request:&lt;br&gt;&amp;nbsp; &amp;nbsp; branches:&lt;br&gt;&amp;nbsp; &amp;nbsp; - main&lt;br&gt;FROM FEATURE/*&lt;br&gt;&lt;/span&gt;&lt;/font&gt;" style="shape=note;whiteSpace=wrap;html=1;backgroundOutline=1;darkOpacity=0.05;rounded=0;strokeWidth=5;align=left;verticalAlign=top;size=17;fillColor=#fff2cc;strokeColor=#d6b656;" vertex="1" parent="7D0shIT3l6bG66J5Vg1D-0">
          <mxGeometry x="360" y="860" width="120" height="90" as="geometry" />
        </mxCell>
        <mxCell id="7D0shIT3l6bG66J5Vg1D-21" value="&lt;div style=&quot;overflow-wrap: break-word&quot;&gt;on:&lt;br&gt;&amp;nbsp;push:&lt;br&gt;&amp;nbsp; branches:&lt;br&gt;&amp;nbsp; &amp;nbsp;- &#39;feature/**&#39;&lt;/div&gt;" style="shape=note;whiteSpace=wrap;html=1;backgroundOutline=1;darkOpacity=0.05;rounded=0;strokeWidth=5;align=left;verticalAlign=top;size=17;fillColor=#dae8fc;strokeColor=#6c8ebf;fontFamily=Courier New;" vertex="1" parent="7D0shIT3l6bG66J5Vg1D-0">
          <mxGeometry x="80" y="860" width="120" height="80" as="geometry" />
        </mxCell>
        <mxCell id="7D0shIT3l6bG66J5Vg1D-23" value="&lt;div style=&quot;overflow-wrap: break-word&quot;&gt;on:&lt;br&gt;&amp;nbsp; push:&lt;br&gt;&amp;nbsp; &amp;nbsp; branches:&lt;br&gt;- &#39;main&#39;&lt;/div&gt;" style="shape=note;whiteSpace=wrap;html=1;backgroundOutline=1;darkOpacity=0.05;rounded=0;strokeWidth=5;align=left;verticalAlign=top;size=17;fillColor=#f8cecc;strokeColor=#b85450;fontFamily=Courier New;" vertex="1" parent="7D0shIT3l6bG66J5Vg1D-0">
          <mxGeometry x="400" y="1030" width="120" height="80" as="geometry" />
        </mxCell>
        <mxCell id="7D0shIT3l6bG66J5Vg1D-24" value="&lt;font face=&quot;Courier New&quot;&gt;&lt;span class=&quot;pl-ent&quot; style=&quot;box-sizing: border-box ; font-family: , , &amp;#34;sf mono&amp;#34; , &amp;#34;consolas&amp;#34; , &amp;#34;liberation mono&amp;#34; , &amp;#34;menlo&amp;#34; , monospace&quot;&gt;on&lt;/span&gt;&lt;span style=&quot;color: rgb(36 , 41 , 47) ; font-family: , , &amp;#34;sf mono&amp;#34; , &amp;#34;consolas&amp;#34; , &amp;#34;liberation mono&amp;#34; , &amp;#34;menlo&amp;#34; , monospace&quot;&gt;:&lt;br&gt;&amp;nbsp;release:&lt;br&gt;&amp;nbsp; types:&lt;br&gt;&amp;nbsp; &amp;nbsp;-published&lt;br&gt;&lt;/span&gt;&lt;/font&gt;" style="shape=note;whiteSpace=wrap;html=1;backgroundOutline=1;darkOpacity=0.05;rounded=0;strokeWidth=5;align=left;verticalAlign=top;size=17;fillColor=#f8cecc;strokeColor=#b85450;" vertex="1" parent="7D0shIT3l6bG66J5Vg1D-0">
          <mxGeometry x="720" y="860" width="120" height="80" as="geometry" />
        </mxCell>
        <mxCell id="7D0shIT3l6bG66J5Vg1D-25" value="&lt;span style=&quot;font-family: &amp;#34;courier new&amp;#34;&quot;&gt;on:&lt;/span&gt;&lt;br style=&quot;font-family: &amp;#34;courier new&amp;#34;&quot;&gt;&lt;span style=&quot;font-family: &amp;#34;courier new&amp;#34;&quot;&gt;&amp;nbsp; push:&lt;/span&gt;&lt;br style=&quot;font-family: &amp;#34;courier new&amp;#34;&quot;&gt;&lt;span style=&quot;font-family: &amp;#34;courier new&amp;#34;&quot;&gt;&amp;nbsp; &amp;nbsp; branches:&lt;/span&gt;&lt;br style=&quot;font-family: &amp;#34;courier new&amp;#34;&quot;&gt;&lt;span style=&quot;font-family: &amp;#34;courier new&amp;#34;&quot;&gt;- &#39;fix/**&#39;&lt;/span&gt;" style="shape=note;whiteSpace=wrap;html=1;backgroundOutline=1;darkOpacity=0.05;rounded=0;strokeWidth=5;align=left;verticalAlign=top;size=17;fillColor=#e1d5e7;strokeColor=#9673a6;" vertex="1" parent="7D0shIT3l6bG66J5Vg1D-0">
          <mxGeometry x="1040" y="860" width="120" height="80" as="geometry" />
        </mxCell>
        <mxCell id="7D0shIT3l6bG66J5Vg1D-27" value="&lt;font face=&quot;Courier New&quot;&gt;&lt;span class=&quot;pl-ent&quot; style=&quot;box-sizing: border-box ; font-family: , , &amp;#34;sf mono&amp;#34; , &amp;#34;consolas&amp;#34; , &amp;#34;liberation mono&amp;#34; , &amp;#34;menlo&amp;#34; , monospace&quot;&gt;on&lt;/span&gt;&lt;span style=&quot;color: rgb(36 , 41 , 47) ; font-family: , , &amp;#34;sf mono&amp;#34; , &amp;#34;consolas&amp;#34; , &amp;#34;liberation mono&amp;#34; , &amp;#34;menlo&amp;#34; , monospace&quot;&gt;:&lt;br&gt;&amp;nbsp;&amp;nbsp;&lt;/span&gt;&lt;span class=&quot;pl-s&quot; style=&quot;box-sizing: border-box ; font-family: , , &amp;#34;sf mono&amp;#34; , &amp;#34;consolas&amp;#34; , &amp;#34;liberation mono&amp;#34; , &amp;#34;menlo&amp;#34; , monospace&quot;&gt;pull_request:&lt;br&gt;&amp;nbsp; &amp;nbsp; branches:&lt;br&gt;&amp;nbsp; &amp;nbsp; - main&lt;br&gt;FROM FIX/*&lt;br&gt;&lt;/span&gt;&lt;/font&gt;" style="shape=note;whiteSpace=wrap;html=1;backgroundOutline=1;darkOpacity=0.05;rounded=0;strokeWidth=5;align=left;verticalAlign=top;size=17;fillColor=#e1d5e7;strokeColor=#9673a6;" vertex="1" parent="7D0shIT3l6bG66J5Vg1D-0">
          <mxGeometry x="1080" y="1020" width="120" height="90" as="geometry" />
        </mxCell>
        <mxCell id="7D0shIT3l6bG66J5Vg1D-28" value="&lt;font face=&quot;Courier New&quot;&gt;&lt;span class=&quot;pl-ent&quot; style=&quot;box-sizing: border-box ; font-family: , , &amp;#34;sf mono&amp;#34; , &amp;#34;consolas&amp;#34; , &amp;#34;liberation mono&amp;#34; , &amp;#34;menlo&amp;#34; , monospace&quot;&gt;on&lt;/span&gt;&lt;span style=&quot;color: rgb(36 , 41 , 47) ; font-family: , , &amp;#34;sf mono&amp;#34; , &amp;#34;consolas&amp;#34; , &amp;#34;liberation mono&amp;#34; , &amp;#34;menlo&amp;#34; , monospace&quot;&gt;:&lt;br&gt;&amp;nbsp;&amp;nbsp;&lt;/span&gt;&lt;span class=&quot;pl-s&quot; style=&quot;box-sizing: border-box ; font-family: , , &amp;#34;sf mono&amp;#34; , &amp;#34;consolas&amp;#34; , &amp;#34;liberation mono&amp;#34; , &amp;#34;menlo&amp;#34; , monospace&quot;&gt;pull_request:&lt;br&gt;&amp;nbsp; &amp;nbsp; branches:&lt;br&gt;&amp;nbsp; &amp;nbsp; - main&lt;br&gt;FROM HF/*&lt;br&gt;&lt;/span&gt;&lt;/font&gt;" style="shape=note;whiteSpace=wrap;html=1;backgroundOutline=1;darkOpacity=0.05;rounded=0;strokeWidth=5;align=left;verticalAlign=top;size=17;fillColor=#b0e3e6;strokeColor=#0e8088;" vertex="1" parent="7D0shIT3l6bG66J5Vg1D-0">
          <mxGeometry x="1320" y="940" width="120" height="90" as="geometry" />
        </mxCell>
      </root>
    </mxGraphModel>
  </diagram>
</mxfile>
